<?xml version="1.0" standalone="no"?>
<!DOCTYPE svg PUBLIC "-//W3C//DTD SVG 1.1//EN" "http://www.w3.org/Graphics/SVG/1.1/DTD/svg11.dtd" >
<svg xmlns="http://www.w3.org/2000/svg">
<metadata>
Created by FontForge 20120731 at Wed Nov 30 14:10:29 2016
 By admin
</metadata>
<defs>
<font id="iconfont" horiz-adv-x="1024" >
  <font-face 
    font-family="iconfont"
    font-weight="500"
    font-stretch="normal"
    units-per-em="1024"
    panose-1="2 0 6 3 0 0 0 0 0 0"
    ascent="896"
    descent="-128"
    x-height="792"
    bbox="0 -220 2061 896"
    underline-thickness="0"
    underline-position="0"
    unicode-range="U+0078-E721"
  />
<missing-glyph 
 />
    <glyph glyph-name=".notdef" 
 />
    <glyph glyph-name=".notdef" 
 />
    <glyph glyph-name=".null" horiz-adv-x="0" 
 />
    <glyph glyph-name="nonmarkingreturn" horiz-adv-x="341" 
 />
    <glyph glyph-name="x" unicode="x" horiz-adv-x="1001" 
d="M281 543q-27 -1 -53 -1h-83q-18 0 -36.5 -6t-32.5 -18.5t-23 -32t-9 -45.5v-76h912v41q0 16 -0.5 30t-0.5 18q0 13 -5 29t-17 29.5t-31.5 22.5t-49.5 9h-133v-97h-438v97zM955 310v-52q0 -23 0.5 -52t0.5 -58t-10.5 -47.5t-26 -30t-33 -16t-31.5 -4.5q-14 -1 -29.5 -0.5
t-29.5 0.5h-32l-45 128h-439l-44 -128h-29h-34q-20 0 -45 1q-25 0 -41 9.5t-25.5 23t-13.5 29.5t-4 30v167h911zM163 247q-12 0 -21 -8.5t-9 -21.5t9 -21.5t21 -8.5q13 0 22 8.5t9 21.5t-9 21.5t-22 8.5zM316 123q-8 -26 -14 -48q-5 -19 -10.5 -37t-7.5 -25t-3 -15t1 -14.5
t9.5 -10.5t21.5 -4h37h67h81h80h64h36q23 0 34 12t2 38q-5 13 -9.5 30.5t-9.5 34.5q-5 19 -11 39h-368zM336 498v228q0 11 2.5 23t10 21.5t20.5 15.5t34 6h188q31 0 51.5 -14.5t20.5 -52.5v-227h-327z" />
    <glyph glyph-name="jiahao" unicode="&#xe63f;" horiz-adv-x="1000" 
d="M746 346h-201v201q0 13 -8.5 21.5t-21 8.5t-21.5 -8.5t-9 -21.5v-201h-201q-12 0 -21 -8.5t-9 -21t9 -21.5t21 -9h201v-201q0 -12 9 -20.5t21.5 -8.5t21 8.5t8.5 20.5v201h201q12 0 21 9t9 21.5t-9 21t-21 8.5z" />
    <glyph glyph-name="left" unicode="&#xe602;" 
d="M748 697l-48 48l-446 -447l446 -446l48 48l-398 398z" />
    <glyph glyph-name="mima" unicode="&#xe605;" 
d="M791 341l-459 1q0 11 -1.5 39.5t-1 47.5t3 44.5t11.5 46.5t24 38q27 30 65.5 51t78.5 21q62 0 109 -40.5t72 -103.5q7 -19 14.5 -27.5t21.5 -8.5q22 -1 32.5 12.5t8.5 30t-5 29.5q-70 180 -253 180q-63 0 -103 -15.5t-77 -56.5q-18 -20 -31.5 -45.5t-21 -51t-12 -53
t-5.5 -52t-2 -47.5t0 -39l-27 -1q-18 0 -31.5 -13t-13.5 -32v-378q0 -19 13.5 -32t31.5 -13h558q19 0 32.5 13t13.5 32v378q0 19 -13.5 32t-32.5 13v0zM766 -18q0 -15 -10.5 -25.5t-25.5 -10.5h-434q-15 0 -25.5 10.5t-10.5 25.5v252q0 15 10.5 25.5t25.5 10.5h434
q15 0 25.5 -10.5t10.5 -25.5v-252z" />
    <glyph glyph-name="scan" unicode="&#xe600;" 
d="M928 352h-832q-13 0 -22.5 9.5t-9.5 22.5t9.5 22.5t22.5 9.5h832q13 0 22.5 -9.5t9.5 -22.5t-9.5 -22.5t-22.5 -9.5zM832 -32h-192q-13 0 -22.5 9.5t-9.5 22.5t9.5 22.5t22.5 9.5h192q13 0 22.5 9.5t9.5 22.5v160q0 13 9.5 22.5t22.5 9.5t22.5 -9.5t9.5 -22.5v-160
q0 -40 -28 -68t-68 -28zM352 -32h-160q-40 0 -68 28t-28 68v160q0 13 9.5 22.5t22.5 9.5t22.5 -9.5t9.5 -22.5v-160q0 -13 9.5 -22.5t22.5 -9.5h160q13 0 22.5 -9.5t9.5 -22.5t-9.5 -22.5t-22.5 -9.5zM128 512q-13 0 -22.5 9.5t-9.5 22.5v160q0 40 28 68t68 28h160
q13 0 22.5 -9.5t9.5 -22.5t-9.5 -22.5t-22.5 -9.5h-160q-13 0 -22.5 -9.5t-9.5 -22.5v-160q0 -13 -9.5 -22.5t-22.5 -9.5zM896 512q-13 0 -22.5 9.5t-9.5 22.5v160q0 13 -9.5 22.5t-22.5 9.5h-192q-13 0 -22.5 9.5t-9.5 22.5t9.5 22.5t22.5 9.5h192q40 0 68 -28t28 -68v-160
q0 -13 -9.5 -22.5t-22.5 -9.5z" />
    <glyph glyph-name="shouji" unicode="&#xe608;" 
d="M767 42h-512v643h512v-643v0zM303 90h416v547h-416v-547v0v0zM554 -37.5q0 -16.5 -11.5 -28t-28 -11.5t-28 11.5t-11.5 28t11.5 28t28 11.5t28 -11.5t11.5 -28zM766 -167h-509q-34 0 -58 24t-24 58v769q0 34 24 58t58 24h509q34 0 58 -24t24 -58v-769q0 -34 -24 -58
t-58 -24v0zM257 718q-14 0 -24 -10t-10 -24v-769q0 -14 10 -24t24 -10h509q14 0 23.5 10t9.5 24v769q0 14 -9.5 24t-23.5 10h-509v0zM257 718z" />
    <glyph glyph-name="shoucang" unicode="&#xe61a;" 
d="M508 827q-17 0 -27 -11q-10 -10 -15 -24l-103 -236l-275 -25q-10 -2 -17 -9q-9 -7 -10.5 -19t5.5 -25q8 -11 19 -21l10 -9l22 -19q22 -19 31 -26l36 -30q30 -26 94 -80l-30 -124q-6 -22 -12 -47q-7 -27 -11 -42q-4 -20 -8 -32l-4 -17q-2 -8 1.5 -15.5t11.5 -13.5
q7 -5 17 -6q2 -1 4 -1q7 0 14 4q5 2 17 9q11 5 31 17q10 6 40 23q27 16 44 25q46 26 115 66l232 -134l13 -5q8 -3 13 -3q13 0 24 6t8 23q-1 3 -4 17l-6 33q-5 22 -9 44q-4 20 -10 47q-15 72 -26 127l184 164q12 14 19 22q8 9 8 22t-7 19q-8 6 -25 11l-276 25l-99 237
q-2 3 -5 9q-4 6 -8 10q-4 6 -11 10t-15 4z" />
    <glyph glyph-name="xiugai" unicode="&#xe60c;" 
d="M940 507q25 28 21 58.5t-31 58.5l-85 85q-26 26 -63 26t-63 -26l211 -212zM537 87l358 360l-211 212l-358 -360zM642 532q17 18 42 18t42 -18l42 -42q18 -18 18 -43t-18 -42l-189 -191q-18 -17 -42.5 -17t-41.5 17l-43 43q-17 17 -17 42t17 42zM247 66q-3 -24 11.5 -38.5
t38.5 -10.5l190 35l-210 212zM937 165q-13 0 -24 -9t-11 -21v-121q0 -43 -30.5 -73.5t-73.5 -30.5h-572q-43 0 -73.5 30.5t-30.5 73.5v572q0 43 30.5 73.5t73.5 30.5h253h4q10 0 14 0.5t8 3.5t4 11q0 13 -9 29t-21 16h-297q-50 0 -85 -35.5t-35 -84.5v-660q0 -49 35 -84.5
t85 -35.5h660q50 0 85 35.5t35 84.5v165q0 13 -6.5 21.5t-18.5 8.5z" />
    <glyph glyph-name="shezhi" unicode="&#xe615;" 
d="M644 -105v0q-25 0 -41 18q-16 17 -42.5 35t-48.5 18q-23 0 -49.5 -18t-41.5 -34q-16 -18 -41 -18q-11 0 -21 5h-1l-107 60l-1 1q-14 10 -19 27.5t2 33.5q10 23 10 43q0 47 -33 80t-80 33h-4v0q-14 0 -24 11t-13 30q-10 48 -10 85t10 85q3 19 13.5 30t23.5 10h4
q47 0 80 33.5t33 79.5q0 21 -10 44q-7 16 -2 33.5t19 27.5l2 1l112 62h1q10 4 21 4q25 0 41 -16q15 -17 41 -34t48 -17t47.5 17t41.5 33t40 16q12 0 21 -4l2 -1l108 -60l1 -1q15 -10 20 -27.5t-2 -33.5q-10 -23 -10 -44q0 -46 33 -79.5t80 -33.5h3q14 1 24.5 -10t13.5 -30
q9 -48 9 -85t-9 -85q-3 -19 -13.5 -30t-24.5 -11h-3q-47 0 -80 -33t-33 -80q0 -20 10 -43q7 -16 2 -33.5t-20 -27.5l-1 -1l-110 -61l-1 -1q-10 -4 -21 -4zM641 -53q1 -1 3 -1v0l103 57q-13 33 -13 63q0 66 45 113.5t110 50.5q8 45 8 75t-8 75q-65 3 -110 50.5t-45 112.5
q0 31 13 64l-101 56h-1q-2 0 -3 -1q-16 -16 -38 -32q-47 -33 -88 -33t-89 34q-22 16 -37 32q-2 1 -4 1h-1l-105 -57q14 -33 14 -64q0 -65 -45 -112.5t-110 -50.5q-8 -45 -8 -75t8 -75q65 -3 110 -50.5t45 -113.5q0 -30 -14 -63l100 -55v0h3q16 18 38 34q49 35 91 35t90 -36
q23 -16 39 -34zM512 155q-62 0 -106 44t-44 106.5t44 106.5t106 44t106 -44t44 -106.5t-44 -106.5t-106 -44zM512 405q-41 0 -70 -29t-29 -70.5t29 -70.5t70 -29t70 29t29 70.5t-29 70.5t-70 29z" />
    <glyph glyph-name="guanbi" unicode="&#xe639;" 
d="M822 -10q-10 -10 -24 -10t-24 10l-572 573q-10 10 -10 23.5t10 23.5v0q10 10 24 10t23 -10l573 -572q10 -10 10 -24t-10 -24v0zM202 -10q-10 10 -10 24t10 24l572 572q10 10 24 10t24 -10v0q10 -10 10 -23.5t-10 -23.5l-573 -573q-9 -10 -23 -10t-24 10v0z" />
    <glyph glyph-name="right" unicode="&#xe628;" 
d="M347 -82q-11 0 -19 7t-8 17t8 17l376 343l-376 343q-8 7 -8 17t8 17t18.5 7t18.5 -7l395 -360q7 -7 7 -17t-7 -17l-395 -360q-8 -7 -18 -7v0z" />
    <glyph glyph-name="tips2" unicode="&#xe633;" 
d="M981 485q-40 92 -109 161t-161.5 109t-197.5 40t-197 -40t-161 -109t-109 -161.5t-40 -197.5t40 -197t109 -161t161 -109t197 -40t197.5 40t161.5 109t109 161t40 197t-40 198v0zM513 -40q-24 0 -40.5 16.5t-16.5 40.5t16.5 41t40.5 17t41 -17t17 -41t-17 -40.5
t-41 -16.5v0zM571 198q0 -23 -17 -40t-41 -17t-40.5 17t-16.5 40v360q0 24 16.5 40.5t40.5 16.5t41 -16.5t17 -40.5v-360zM571 198z" />
    <glyph glyph-name="dingdan" unicode="&#xe616;" 
d="M792 637h-84v56h-75q-19 25 -51 40.5t-70 15.5t-70 -15.5t-51 -40.5h-75v-56h-84q-46 0 -79 -33t-33 -79v-560q0 -47 33 -79.5t79 -32.5h560q46 0 79 32.5t33 79.5v560q0 46 -33 79t-79 33zM372 637h62q0 23 23 39.5t55 16.5t55 -16.5t23 -39.5h62v-112h-280v112z
M848 -35q0 -24 -16.5 -40t-39.5 -16h-560q-23 0 -39.5 16t-16.5 40v560q0 23 16.5 39.5t39.5 16.5h84v-112h392v112h84q23 0 39.5 -16.5t16.5 -39.5v-560zM708 77h-392q-12 0 -20 -8.5t-8 -20t8 -19.5t20 -8h392q12 0 20 8t8 19.5t-8 20t-20 8.5zM708 357h-392
q-12 0 -20 -8.5t-8 -20t8 -19.5t20 -8h392q12 0 20 8t8 19.5t-8 20t-20 8.5zM708 217h-392q-12 0 -20 -8.5t-8 -20t8 -19.5t20 -8h392q12 0 20 8t8 19.5t-8 20t-20 8.5z" />
    <glyph glyph-name="life_goods" unicode="&#xe642;" 
d="M608.5 703q13.5 0 22.5 9t9 23v63q0 14 -9 23t-22.5 9t-22.5 -9t-9 -23v-63q0 -14 9 -23t22.5 -9zM736.5 639q13.5 0 22.5 9t9 23v127q0 14 -9 23t-22.5 9t-23 -9t-9.5 -23v-127q0 -14 9.5 -23t23 -9zM864 383h-32q0 53 -37.5 90.5t-90.5 37.5h-64q0 53 -37 90.5
t-90 37.5t-90.5 -37.5t-37.5 -90.5h-64q-53 0 -90.5 -37.5t-37.5 -90.5h-32q-39 0 -67 -28t-28 -67.5t28 -67.5t67 -28h32v-128q0 -53 37.5 -90.5t90.5 -37.5h383q53 0 90.5 37.5t37.5 90.5v128h32q40 0 68 28t28 67.5t-28 67.5t-68 28zM512.5 575q26.5 0 45.5 -19t19 -45
h-128q0 26 18.5 45t45 19zM321 447h383q27 0 45.5 -18.5t18.5 -45.5h-511q0 27 19 45.5t45 18.5zM864 256h-96v-192q0 -27 -18.5 -45.5t-45.5 -18.5h-383q-26 0 -45 18.5t-19 45.5v192h-96q-13 0 -22 9t-9 22.5t9 22.5t22 9h703q13 0 22.5 -9t9.5 -22.5t-9.5 -22.5t-22.5 -9
zM417 703q13 0 22.5 9t9.5 23v63q0 14 -9.5 23t-22.5 9t-22.5 -9t-9.5 -23v-63q0 -14 9.5 -23t22.5 -9zM289 639q13 0 22.5 9t9.5 23v127q0 14 -9.5 23t-22.5 9t-22.5 -9t-9.5 -23v-127q0 -14 9.5 -23t22.5 -9z" />
    <glyph glyph-name="list" unicode="&#xe607;" 
d="M123 791q-23 0 -39.5 -16t-16.5 -39.5t16.5 -39.5t39.5 -16t39.5 16t16.5 39.5t-16.5 39.5t-39.5 16v0zM302 702h625q14 0 23.5 10t9.5 23.5t-9.5 23.5t-23.5 10h-625q-14 0 -24 -10t-10 -23.5t10 -23.5t24 -10v0zM123 457q-23 0 -39.5 -16.5t-16.5 -39.5t16.5 -39.5
t39.5 -16.5t39.5 16.5t16.5 39.5t-16.5 39.5t-39.5 16.5v0zM927 434h-625q-14 0 -24 -9.5t-10 -23.5t10 -24t24 -10h625q14 0 23.5 10t9.5 24t-9.5 23.5t-23.5 9.5v0zM123 99q-23 0 -39.5 -16t-16.5 -39.5t16.5 -39.5t39.5 -16t39.5 16t16.5 39.5t-16.5 39.5t-39.5 16v0z
M927 77h-625q-14 0 -24 -10t-10 -23.5t10 -23.5t24 -10h625q14 0 23.5 10t9.5 23.5t-9.5 23.5t-23.5 10v0zM927 84z" />
    <glyph glyph-name="home" unicode="&#xe609;" 
d="M798 320q-13 0 -21.5 -9t-8.5 -22v-289h-505v289q0 13 -9 22t-22 9t-22 -9t-9 -22v-320q0 -12 9 -21t22 -9h566q13 0 22 9t9 21v320q0 13 -9 22t-22 9zM946 441l-411 383q-8 8 -20.5 8t-20.5 -8l-412 -383q-9 -9 -9.5 -22t7.5 -22q10 -10 23 -10q12 0 21 9l390 364
l390 -364q9 -9 21.5 -8.5t21.5 9.5t8.5 22t-9.5 22z" />
    <glyph glyph-name="fenxiang" unicode="&#xe621;" 
d="M841 788q66 -25 95.5 -89t5.5 -130t-88 -96t-130.5 -5.5t-96 88.5t-5.5 130t88 96t131 6v0zM279 434q61 -22 88.5 -81t5 -120.5t-81.5 -89t-120.5 -5t-89 81.5t-5 120.5t81.5 89t121 4.5v0zM862 82q56 -21 81 -75t4.5 -110t-74.5 -81.5t-110 -5t-81.5 75t-5 110.5t75 81
t110.5 5v0zM284 238l29 44l497 -322l-29 -44l-497 322v0zM793 682l30 -44l-559 -382l-30 43l559 383v0zM793 682z" />
    <glyph glyph-name="zhifu" unicode="&#xe62d;" 
d="M928 553v223q0 24 -24 33q-13 6 -40 -2l-832 -254v-64v-637q0 -27 18.5 -45.5t45.5 -18.5h832q27 0 45.5 18.5t18.5 45.5v637q0 26 -18.5 45t-45.5 19zM864 744v-191h-624zM928 138v-31h-128v31v32h128v-32zM928 234h-160q-13 0 -22.5 -9.5t-9.5 -22.5v-127
q0 -13 9.5 -22.5t22.5 -9.5h160v-159q0 -14 -9.5 -23t-22.5 -9h-768q-13 0 -22.5 9t-9.5 23v605h800q13 0 22.5 -9.5t9.5 -22.5v-223z" />
    <glyph glyph-name="clothing_goods" unicode="&#xe643;" 
d="M762 666l70 -77l-109 -109v-371h-422v371l-109 109l70 70h96q30 -29 70.5 -46.5t83.5 -17.5q44 0 84.5 18.5t69.5 52.5h96zM787 730h-160q-14 -34 -45 -52.5t-70 -18.5t-70 18.5t-45 52.5h-160l-109 -109q-10 -15 -10 -31.5t10 -26.5l109 -109v-364q0 -20 12.5 -32.5
t32.5 -12.5h454q19 0 32 12.5t13 32.5v364l115 109q10 10 10 26.5t-10 31.5z" />
    <glyph glyph-name="share" unicode="&#xe62a;" 
d="M769 96q-54 0 -91 -38l-310 172q15 28 15 58q0 17 -6 36l305 189q37 -33 85 -33q53 0 90.5 37.5t37.5 90.5t-37.5 90.5t-90.5 37.5t-90.5 -37.5t-37.5 -90.5q0 -20 8 -41l-302 -188q-38 37 -90 37q-53 0 -90.5 -37.5t-37.5 -90.5t37.5 -90.5t90.5 -37.5q38 0 70 21
l321 -179q-5 -18 -5 -34q0 -53 37.5 -90.5t90.5 -37.5t90.5 37.5t37.5 90.5t-37.5 90.5t-90.5 37.5zM767.5 672q26.5 0 45 -19t18.5 -45.5t-18.5 -45t-45 -18.5t-45.5 18.5t-19 45t19 45.5t45.5 19zM191 288.5q0 26.5 19 45t45.5 18.5t45 -18.5t18.5 -45t-18.5 -45.5
t-45 -19t-45.5 19t-19 45.5zM768.5 -96q-26.5 0 -45 19t-18.5 45.5t18.5 45t45 18.5t45.5 -18.5t19 -45t-19 -45.5t-45.5 -19z" />
    <glyph glyph-name="tuijian" unicode="&#xe625;" 
d="M939 462q-14 23 -37.5 36.5t-49.5 14.5l-213 1q21 62 21 127q0 33 -6 67l-4 18q-8 36 -37.5 59.5t-67.5 23.5q-44 0 -76 -31.5t-32 -76.5q0 -6 1 -9q-1 -38 -22 -78.5t-49.5 -69.5t-57 -48t-44.5 -19v0h-159q-15 0 -26 -11t-11 -27l-1 -442q0 -16 12 -26.5t29 -10.5h138
l5 -1l5 1l522 -1q28 2 51 17q26 17 36 39l7 11q16 38 37 131t30.5 146t13.5 82l1 10q3 36 -16 67zM133 413h85v-390h-85v390zM816 54l-4 -6q-6 -11 -16 -18q-10 -6 -19 -7l-495 1v392q32 6 69.5 32t70.5 63t56 86.5t24 97.5l-1 6q0 18 13 31t31 13q16 0 28 -9.5t15 -24.5
l4 -15q4 -27 4 -55q0 -55 -18 -106l-29 -85h291l7 -1q25 -1 38 -21q7 -13 6 -33q-48 -274 -75 -341z" />
    <glyph glyph-name="noshoucang" unicode="&#xe631;" 
d="M752 -43q-16 0 -30 7l-208 103l-209 -103q-15 -8 -34 -6.5t-34 11.5q-15 11 -22 28.5t-4 35.5l43 225l-164 153q-30 29 -17 68q6 18 20 30t32 15l229 42l102 208q18 37 58 37q19 0 35 -10t24 -27l102 -208l229 -41q18 -3 32 -15t20 -30q6 -17 1.5 -35.5t-17.5 -31.5
l-166 -155l42 -224q3 -19 -4 -36.5t-22 -28.5q-17 -12 -38 -12v0v0zM514 119l228 -114q12 -6 21.5 1.5t7.5 19.5l-46 248l183 173q8 8 5 19q-4 12 -16 14l-252 44l-113 230q-5 10 -17.5 10t-17.5 -10l-113 -229l-251 -47q-13 -2 -17 -13q-4 -12 5 -20l183 -171l-48 -249
q-2 -11 8 -18q10 -8 20 -2l230 114v0zM514 119z" />
    <glyph glyph-name="jiaru" unicode="&#xe624;" horiz-adv-x="1074" 
d="M47 846q21 0 34.5 -10.5t16.5 -27.5l95 -727q4 -37 32.5 -60.5t66.5 -23.5h632v50h-632q-19 0 -33.5 11.5t-16.5 29.5l-95 726q-5 37 -33 59.5t-67 22.5h-47v-50h47zM624 471v125h-50v-125h-124v-50h124v-124h50v124h125v50h-125zM974 696q26 0 40 -16.5t8 -39.5
l-110 -409q-10 -34 -48 -34h-639v-50h639q35 0 61 19t35 51l111 410q12 48 -17.5 83.5t-79.5 35.5h-824v-50h824zM400 -128v50h-100v-50h100zM849 -128v50h-100v-50h100z" />
    <glyph glyph-name="dingwei" unicode="&#xe63a;" 
d="M516 -174l-19 18q-18 16 -46 43t-89.5 95t-109.5 131.5t-86 141.5t-38 137q0 105 52 194.5t141.5 141.5t195 52t195 -52t141.5 -141.5t52 -194.5q0 -59 -38.5 -137t-86 -141.5t-109.5 -131.5t-89.5 -95t-45.5 -43l-20 -18v0zM516 703q-130 0 -222 -92.5t-92 -222.5
q0 -48 33.5 -114.5t86.5 -133t101 -119.5t93 -97q46 44 94 97t101 119.5t86.5 133t33.5 114.5q0 130 -92.5 222.5t-222.5 92.5v0zM516 238q-70 0 -120 49.5t-50 120t50 120.5t120.5 50t120 -50t49.5 -120.5t-49.5 -120t-120.5 -49.5v0zM516 500q-38 0 -65 -27t-27 -65.5
t27 -65.5t65.5 -27t65.5 27t27 65.5t-27 65.5t-66 27v0z" />
    <glyph glyph-name="weixin" unicode="&#xe680;" horiz-adv-x="1025" 
d="M512 -212q-104 0 -199 40.5t-163.5 109t-109 163.5t-40.5 199t40.5 199t109 163.5t163.5 109t199 40.5t199 -40.5t163.5 -109t109 -163.5t40.5 -199t-40.5 -199t-109 -163.5t-163.5 -109t-199 -40.5zM440 502q-73 0 -125 -44t-52 -107q0 -70 71 -120l-18 -54l62 31
q45 -8 62 -8h16q-5 19 -5 38q0 58 44 99t107 41q7 0 17 -1q-12 54 -63 89.5t-116 35.5zM613 369q-63 0 -107 -38t-44 -91.5t44 -91t107 -37.5q17 0 53 8l49 -26l-14 44q62 47 62 103q0 53 -45 91t-105 38zM661 262q-6 0 -11.5 5.5t-5.5 12t5.5 12.5t11.5 6q10 0 16.5 -5.5
t6.5 -12.5t-6.5 -12.5t-16.5 -5.5zM564 262q-7 0 -12.5 5.5t-5.5 12t5.5 12.5t12.5 6q10 0 16 -5.5t6 -12.5t-6 -12.5t-16 -5.5zM506 382q-10 0 -18 6.5t-8 16t8 16t18 6.5t16.5 -6.5t6.5 -16.5t-6.5 -16t-16.5 -6zM382 382q-10 0 -18 6.5t-8 16t8 16t18 6.5t16 -6.5
t6 -16.5t-6 -16t-16 -6z" />
    <glyph glyph-name="qq" unicode="&#xe63c;" 
d="M512 791q-100 0 -190.5 -39t-156.5 -104.5t-104.5 -156.5t-38.5 -190.5t38.5 -190.5t104.5 -156.5t156.5 -104.5t190.5 -39t190.5 38.5t156.5 104.5t104.5 156.5t38.5 190.5t-38.5 191t-104.5 156.5t-156.5 104.5t-190.5 39zM718 194q-11 -1 -21 15t-14 19
q-8 -38 -36 -60q4 -3 18.5 -10t21.5 -15t6 -20q-1 -24 -35 -33.5t-74 -6.5q-35 2 -71 27q-6 -2 -16.5 -9t-16.5 -9q-23 -10 -57.5 -10.5t-62.5 10t-30 29.5q-1 14 6 22t23 15.5t19 9.5q-31 22 -36 58q-6 -1 -15.5 -16.5t-19.5 -15.5q-14 0 -18.5 21.5t-2.5 45.5q1 12 4 22.5
t9.5 21.5t10.5 17.5t12.5 17t9.5 12.5q-1 40 11 55q0 71 49 120q23 23 54.5 37.5t63.5 14.5q68 1 121 -51q36 -35 45 -83q1 -4 1.5 -17t2.5 -20q0 -3 4 -9t5 -11t0.5 -16t0.5 -17q1 -4 3 -7.5t6 -8t5 -5.5q29 -38 33 -69q3 -24 -1.5 -47t-17.5 -24z" />
    <glyph glyph-name="weixinpengyouquan" unicode="&#xe63d;" 
d="M512 812q-139 0 -257 -68.5t-186.5 -186.5t-68.5 -257t68.5 -257t186.5 -186.5t257 -68.5t257 68.5t186.5 186.5t68.5 257t-68.5 257t-186.5 186.5t-257 68.5zM691 479q35 -35 57 -86l-141 -134l27 262q30 -17 57 -42zM512 552q51 0 100 -20l-4 -194l-166 205q32 9 70 9z
M333 479q35 35 86 57l133 -140l-263 27q23 33 44 56zM260 300q0 51 20 100l194 -4l-205 -166q-9 32 -9 70zM333 121q-35 35 -57 86l140 133l-27 -263q-33 23 -56 44zM512 48q-50 0 -101 20l5 194l166 -205q-32 -9 -70 -9zM691 121q-35 -35 -86 -57l-134 141l262 -27
q-17 -30 -42 -57zM744 200l-194 4l205 166q10 -34 10 -70q-2 -57 -21 -100z" />
    <glyph glyph-name="shanchu" unicode="&#xe721;" 
d="M572 90v330q0 18 15 25.5t30 0t15 -25.5v-330q0 -24 -24 -28t-33 16q-3 5 -3 12v0v0zM392 90v330q0 18 15 25.5t30 0t15 -25.5v-330q0 -18 -15 -25.5t-30 0t-15 25.5v0v0zM902 570h-150v60q0 37 -26 63t-63 26h-301q-37 0 -63.5 -26t-26.5 -63v-60h-150q-18 0 -25.5 -15
t0 -30t25.5 -15h780v60v0v0zM332 630q0 12 9 21t21 9h301q12 0 20.5 -8.5t8.5 -21.5v-60h-360v60v0zM722 -119h-420q-37 0 -63.5 26t-26.5 63v450q0 13 9 21.5t21 8.5t21 -8.5t9 -21.5v-450q0 -11 9 -20.5t21 -9.5h420q12 0 21 9.5t9 20.5v449q0 18 15 26t30 0t15 -26v-449
q0 -37 -26.5 -63t-63.5 -26v0zM722 -119z" />
    <glyph glyph-name="fenxiang1" unicode="&#xe63b;" 
d="M865 285q-14 0 -24 -10t-10 -24v-297q0 -4 -3.5 -7.5t-7.5 -3.5h-675q-5 0 -8.5 3.5t-3.5 7.5v671q0 5 3.5 8.5t8.5 3.5h409q14 0 24 10t10 24t-10 24t-24 10h-409q-33 0 -56 -23.5t-23 -56.5v-671q0 -32 23 -55.5t56 -23.5h675q32 0 55.5 23.5t23.5 55.5v297
q0 14 -10 24t-24 10zM957 548l-171 169q-10 10 -24.5 10t-24 -10t-9.5 -24t10 -24l114 -113q-81 -3 -152 -26.5t-119 -56t-88 -76t-62 -80t-39 -75t-21.5 -53t-6.5 -22.5q-3 -13 4.5 -25t21.5 -15q4 -1 7 -1q12 0 21.5 7.5t11.5 18.5q3 9 7 23t18.5 47.5t33.5 64t53.5 67.5
t76 64.5t103 47.5t131.5 23l-122 -129q-10 -10 -9.5 -24t10.5 -24q10 -9 23 -9q15 0 25 11l178 186q10 10 9.5 24t-10.5 24z" />
    <glyph glyph-name="gouwu" unicode="&#xe62b;" 
d="M62 39zM893 -67l-27 494q-2 25 -19 42t-43 17h-118v69q0 74 -51.5 125.5t-124.5 51.5t-125 -52q-52 -51 -52 -125v-69h-118q-25 0 -42 -17t-19 -42l-27 -494v-2q0 -25 17.5 -43t42.5 -18h645q26 0 43.5 18t17.5 43v0v2zM396 555q0 47 33.5 80.5t80.5 33.5t80.5 -33.5
t33.5 -80.5v-69h-228v69zM189 -67l28 491h116v-59q-11 -12 -11 -29q0 -23 18 -35q10 -13 24.5 -13t24.5 13q19 12 19 35q0 17 -12 29v59h228v-59q-12 -12 -12 -29q0 -23 19 -35q9 -13 24 -13t24 13q19 12 19 35q0 17 -12 29v59h117l28 -491h-642zM957 39z" />
    <glyph glyph-name="daifukuan" unicode="&#xe617;" 
d="M798 -1h-639q-40 0 -68 28t-28 68v578q0 40 28 68t68 28h642q40 0 68 -28t28 -68v-94q0 -13 -9 -22.5t-22.5 -9.5t-23 9.5t-9.5 22.5v94q0 13 -9 22.5t-23 9.5h-642q-13 0 -22.5 -9.5t-9.5 -22.5v-578q0 -13 9.5 -22.5t22.5 -9.5h639q14 0 23 9.5t9 22.5v99
q0 13 9.5 22.5t23 9.5t22.5 -9.5t9 -22.5v-99q0 -40 -28 -68t-68 -28v0zM692 385v0v0q0 13 -9.5 22t-22.5 9t-22 -9t-9 -22v0v0v0v0q0 -13 9 -22t22 -9t22.5 9t9.5 22v0v0zM903 258h-331q-23 0 -39.5 16.5t-16.5 40.5v141q0 23 16.5 40t39.5 17h331q24 0 40.5 -17t16.5 -40
v-141q0 -24 -16.5 -40.5t-40.5 -16.5zM578 320h320v131h-320v-131z" />
    <glyph glyph-name="woxihuande" unicode="&#xe60a;" 
d="M513 832q-91 0 -173.5 -35.5t-142.5 -95.5t-95.5 -142.5t-35.5 -173.5t35.5 -173.5t95.5 -142.5t142.5 -95.5t173.5 -35.5t173.5 35.5t142.5 95.5t95.5 142.5t35.5 173.5t-35.5 173.5t-95.5 142.5t-142.5 95.5t-173.5 35.5zM513 1q-104 0 -192.5 51.5t-140 140
t-51.5 192.5t51.5 192.5t140 140t192.5 51.5t192.5 -51.5t140 -140t51.5 -192.5t-51.5 -192.5t-140 -140t-192.5 -51.5v0zM720.5 559.5q-41.5 41.5 -98.5 41.5q-33 0 -61 -14t-48 -37q-19 23 -47.5 37t-61.5 14q-57 0 -98.5 -41.5t-41.5 -98.5q0 -33 14 -61.5t37 -48.5
l115 -95l83 -87l86 88l124 105q39 41 39 99q0 57 -41.5 98.5zM673 378q0 -1 -0.5 -1.5l-0.5 -0.5l-96 -80l-63 -60l-60 59l-92 76l-1 1q-38 30 -38 78q0 41 29 70t70 29q32 0 59 -20q1 -1 2 -1q25 -20 31 -28q9 11 27 23q28 26 66 26q41 0 70 -29t29 -70q0 -43 -32 -72z" />
    <glyph glyph-name="icon" unicode="&#xe627;" 
d="M792 -149h-560q-46 0 -79 33t-33 79v560q0 46 33 79t79 33h84v56h76q18 25 50 40.5t70 15.5t70 -15.5t51 -40.5h75v-56h84q47 0 79.5 -33t32.5 -79v-560q0 -46 -32.5 -79t-79.5 -33zM652 635h-62q0 23 -23 39.5t-55 16.5t-55 -16.5t-23 -39.5h-62v-112h280v112zM848 523
q0 23 -16.5 39.5t-39.5 16.5h-84v-112h-392v112h-84q-23 0 -39.5 -16.5t-16.5 -39.5v-560q0 -23 16.5 -39.5t39.5 -16.5h560q23 0 39.5 16.5t16.5 39.5v560zM708 19h-392q-11 0 -19.5 8t-8.5 19.5t8.5 20t19.5 8.5h392q12 0 20 -8.5t8 -20t-8 -19.5t-20 -8zM708 159h-392
q-11 0 -19.5 8t-8.5 19.5t8.5 20t19.5 8.5h392q12 0 20 -8.5t8 -20t-8 -19.5t-20 -8zM708 299h-392q-11 0 -19.5 8t-8.5 19.5t8.5 20t19.5 8.5h392q12 0 20 -8.5t8 -20t-8 -19.5t-20 -8z" />
    <glyph glyph-name="fahuo" unicode="&#xe62e;" 
d="M904 668h-222v-56h177l72 -313h-234l-86 -114h-198l-86 114h-234l72 313h177v56h-222l-92 -398l93 -370h782l93 370zM859 -43h-694l-71 285h205l85 -114h256l85 114h205zM370 378h284v313h122l-264 177l-264 -177h122v-313v0zM427 742l85 57l85 -57v-307h-170v307z" />
    <glyph glyph-name="haiwaizhiyou" unicode="&#xe65d;" 
d="M854.5 719.5q-29.5 29.5 -72 29.5t-72.5 -30l-129 -129l-281 60q-14 3 -24 -7l-73 -72q-9 -10 -7 -23t14 -18l213 -98l-88 -87l-98 -1q-10 0 -18 -7l-54 -55q-9 -9 -7.5 -21.5t12.5 -18.5l133 -73l72 -132q7 -11 19.5 -12.5t21.5 7.5l54 54q8 8 8 18l1 97l87 87l98 -211
q6 -12 19 -14t22 7l73 73q10 10 7 23l-60 281l129 129q30 30 30 72t-29.5 71.5zM818 611l-139 -138q-10 -10 -7 -24l60 -280l-37 -37l-98 212q-4 9 -14 12.5t-20 -0.5q-5 -3 -9 -8l-116 -116q-10 -8 -10 -20l-1 -97l-23 -23l-60 109l-10 10l-109 60l23 22l97 1q11 0 19 8
l120 120q10 10 8 23t-15 18l-212 98l37 37l281 -61q14 -3 24 7l139 139q15 15 36 15t36 -14.5t15 -36t-15 -36.5z" />
    <glyph glyph-name="qq1" unicode="&#xe603;" 
d="M110 88q35 -12 69 13q1 -3 2 -3q-59 -36 -59 -91t58 -91t148 -36q99 0 159 45q18 -1 36 0q59 -45 159 -45q89 0 147.5 36t58.5 91t-59 91q1 2 2 3q34 -25 69 -13q32 10 46.5 49t12 88.5t-18.5 100.5q-20 65 -71 121v11q0 44 -22 84v0q0 94 -46 173.5t-124.5 125.5
t-171.5 46t-171.5 -46t-124.5 -125.5t-46 -173.5v-1q-22 -40 -22 -83q0 -5 1 -10q-52 -56 -72 -122q-16 -51 -18.5 -100.5t12 -88.5t46.5 -49v0zM118 311q18 60 68 110q9 9 7 22q-1 8 -1 15q0 33 18 64q5 6 4 14v6q0 122 85.5 208.5t206 86.5t205.5 -86.5t85 -208.5v-5
q0 -8 4 -15q19 -31 19 -64q0 -7 -1 -16q-3 -12 6 -21q50 -51 68 -110q19 -65 15.5 -117t-23.5 -59q-17 -5 -39 22q-9 10 -22.5 8.5t-19.5 -13.5q-13 -25 -31 -48q-8 -9 -5 -21.5t15 -16.5q55 -23 55 -59q0 -31 -45.5 -53.5t-109.5 -22.5q-90 0 -135 39q-7 6 -16 6h-2
q-24 -2 -48 0q-10 1 -18 -6q-45 -39 -135 -39q-64 0 -109.5 22.5t-45.5 53.5q0 36 55 59q12 5 15 17t-5 22q-18 22 -31 48q-6 11 -19.5 12.5t-22.5 -8.5q-22 -27 -39 -22q-20 7 -23.5 59t15.5 117v0z" />
    <glyph glyph-name="drink_goods" unicode="&#xe645;" 
d="M471 357h-3q-85 16 -116 85q-6 12 6.5 18t18.5 -7q25 -56 96 -69q6 -1 9 -5.5t2 -10.5q-2 -11 -13 -11zM505 248h-13q-74 0 -140 41t-105 110t-39 145v270q0 11 8.5 18t20.5 7h522q12 0 19 -7t7 -18v-270q0 -77 -38.5 -145.5t-103.5 -109.5t-138 -41zM263 784v-240
q0 -94 70 -167.5t159 -73.5h13q88 0 156.5 73.5t68.5 167.5v240h-467zM690 -55h-398q-12 0 -20 8t-8 19.5t8 19.5t20 8h398q12 0 20 -8t8 -19.5t-8 -19.5t-20 -8zM482.5 -52q-11.5 0 -19.5 8t-8 20v302q0 11 8 19.5t19.5 8.5t19.5 -8.5t8 -19.5v-302q0 -12 -8 -20t-19.5 -8z
M237 484q-4 0 -7 2q-12 6 -5 18q2 4 6 11t16.5 22.5t26.5 29.5t36.5 28t47.5 21q76 23 160 -24q39 -21 71.5 -30t52.5 -8.5t39.5 10.5t27.5 17.5t21 20.5q16 17 24 21q13 5 18 -7.5t-8 -18.5q-2 -1 -14 -13q-13 -15 -22.5 -23.5t-32.5 -20.5t-47 -13.5t-62 8t-81 33.5
q-74 41 -139 22q-21 -6 -41 -19t-32.5 -25t-24 -26.5t-14.5 -19.5t-5 -9q-4 -7 -12 -7z" />
    <glyph glyph-name="hongbao" unicode="&#xe61c;" 
d="M824 -127h-624q-57 0 -97.5 40t-40.5 97v681l415 -136h70l415 136v-681q0 -57 -40.5 -97t-97.5 -40v0zM548 216l101 1q33 -1 34 28q1 12 -9 25.5t-26 13.5h-100v24q76 77 96 94q29 27 12 46q-9 11 -23.5 11t-26.5 -10q-7 -6 -30.5 -27t-43.5 -39l-20 -18q-67 68 -81 81
q-12 11 -27.5 15t-28.5 -7q-9 -15 -6 -27t13 -21l93 -97v-26h-105q-11 0 -20 -15t-9 -27q1 -11 9 -18t20 -7h104v-73h-108q-12 0 -20.5 -9t-8.5 -21q-1 -11 7.5 -22.5t21.5 -11.5h108v-35q2 -33 38 -33q15 -1 25.5 9.5t10.5 22.5l-1 36h107q13 0 21.5 10.5t7.5 23.5
q-1 31 -37 31h-98v72zM547 623h-70l-415 137q0 56 40.5 96t97.5 40h624q57 0 97.5 -40t40.5 -96zM547 623z" />
    <glyph glyph-name="wodezuji" unicode="&#xe61d;" 
d="M536 641q-40 16 -78 16q-16 0 -31 -3q-63 -10 -107 -75q-49 -72 -13 -169q2 -8 13 -27t14 -28q16 -55 -17 -105q-5 -8 -13 -16t-14 -13.5t-16 -14t-14 -12.5q-24 -21 -36 -41q-19 -32 -22 -59q-6 -47 11 -85q25 -52 80 -66q25 -6 48 -6q49 0 91 28q35 23 69 58
q78 82 148 189q42 64 61 130q5 29 6 30q18 117 -64 199q-45 43 -116 70v0zM287 654q21 -16 45 -16q39 0 61 35q16 25 16 60q-2 47 -34 78q-23 21 -52 21q-36 0 -59 -32q-23 -33 -16 -77t39 -69v0zM480 668q13 0 25 7q33 17 42 56q6 29 -3 51q-14 35 -49 35q-13 0 -27 -7
q-28 -15 -38.5 -50t4.5 -63q15 -29 46 -29v0zM602 640q10 0 20 4q29 13 39 46q6 25 -1 45q-11 32 -42 32q-11 0 -21 -5q-25 -11 -36 -40t0 -54q13 -28 41 -28v0zM659 604q4 -16 15.5 -24.5t25.5 -8.5q7 0 14 2q30 8 44 39q10 23 6 43q-3 17 -15 27.5t-28 10.5q-7 0 -15 -3
q-26 -7 -40.5 -33.5t-6.5 -52.5v0zM823 544q-1 17 -12.5 28.5t-28.5 11.5q-4 0 -8 -1q-25 -4 -41.5 -27t-12.5 -48q3 -16 14 -25.5t26 -9.5q4 0 8 1q28 4 45 31q11 20 10 39v0z" />
    <glyph glyph-name="gouwuche" unicode="&#xe60d;" 
d="M353 66q-27 0 -45.5 -18.5t-18.5 -45t18.5 -45t45 -18.5t45 18.5t18.5 45t-18.5 45t-44.5 18.5v0zM798 66q-26 0 -45 -18.5t-19 -45t19 -45t45 -18.5t45 18.5t19 45t-19 45t-45 18.5v0zM861 98h-517q-34 0 -60.5 24t-30.5 58l-54 380l-31 178q-1 11 -10 19.5t-20 8.5h-40
q-14 0 -23 9t-9 22.5t9 22.5t23 9h40q35 0 62 -23.5t31 -58.5l31 -177l54 -382q1 -11 9.5 -19t18.5 -8h517q13 0 22.5 -9t9.5 -22.5t-9.5 -22.5t-22.5 -9zM384 225q-12 0 -21.5 8.5t-10.5 20.5q-1 14 8 24t22 10l431 32q12 0 21 8t10 19l50 287q3 18 -8 29q-6 7 -15 7h-551
q-13 0 -22.5 9.5t-9.5 22.5t9.5 22.5t22.5 9.5h551q38 0 63 -28q29 -33 23 -82l-50 -286q-4 -34 -30.5 -57.5t-60.5 -23.5l-430 -32h-2z" />
    <glyph glyph-name="weixinzhifu" unicode="&#xe65f;" 
d="M270 552q0 -16 11.5 -27t27 -11t26.5 11t11 26.5t-11 26.5t-26.5 11t-27 -11t-11.5 -26v0zM564 356.5q0 -12.5 8.5 -21t21 -8.5t21 8.5t8.5 21t-8.5 21t-21 8.5t-21 -8.5t-8.5 -21zM463 552q0 -16 11 -27t26.5 -11t26.5 11t11 26.5t-11 26.5t-26.5 11t-26.5 -11t-11 -26
v0zM858 896h-692q-69 0 -117.5 -48.5t-48.5 -117.5v-692q0 -68 48.5 -117t117.5 -49h692q69 0 117.5 48.5t48.5 117.5v692q0 68 -48.5 117t-117.5 49zM384 210q-30 0 -108 16l-109 -55l31 94q-124 86 -124 209q0 110 91 187t219 77q115 0 204 -62t110 -156q-17 2 -30 2
q-111 0 -187.5 -72t-76.5 -174q0 -32 9 -65q-14 -1 -29 -1zM842 101l23 -77l-85 46q-62 -15 -93 -15q-110 0 -187 65.5t-77 159t77 159.5t187 66q106 0 185 -66.5t79 -158.5q0 -97 -109 -179zM712 356.5q0 -12.5 8.5 -21t21 -8.5t21 8.5t8.5 21t-8.5 21t-21 8.5t-21 -8.5
t-8.5 -21z" />
    <glyph glyph-name="pingjia" unicode="&#xe61f;" 
d="M931 821h-838q-37 0 -64 -26.5t-27 -64.5v-614q0 -37 27 -63.5t64 -26.5h304l115 -115l115 115h304q37 0 64 26.5t27 63.5v614q0 38 -27 64.5t-64 26.5v0zM929 690v-537q0 -19 -13.5 -33t-32.5 -14h-294l-77 -78l-77 78h-294q-19 0 -32.5 14t-13.5 33v537q0 20 13.5 33.5
t32.5 13.5h742q19 0 32.5 -13.5t13.5 -33.5v0zM644 439q0 -25 17.5 -42.5t42.5 -17.5t43 17.5t18 42.5t-18 42.5t-43 17.5t-42.5 -17.5t-17.5 -42.5zM452 439q0 -25 17.5 -42.5t42.5 -17.5t42.5 17.5t17.5 42.5t-17.5 42.5t-42.5 17.5t-42.5 -17.5t-17.5 -42.5zM259 439
q0 -25 18 -42.5t43 -17.5t42.5 17.5t17.5 42.5t-17.5 42.5t-42.5 17.5t-43 -17.5t-18 -42.5z" />
    <glyph glyph-name="gougou" unicode="&#xe626;" 
d="M512 832q-122 0 -225 -60t-163 -163t-60 -225t60 -225t163 -163t225 -60t225 60t163 163t60 225t-60 225t-163 163t-225 60zM512 -9q-106 0 -196.5 53t-143 143.5t-52.5 196.5q0 162 115 277t277 115t277 -115t115 -277q0 -106 -52.5 -196.5t-143 -143.5t-196.5 -53z
M691 548l-263 -265l-118 119q-9 8 -20.5 8t-19.5 -8t-8 -20t8 -20l139 -138q8 -9 19.5 -9t19.5 9q1 0 1 1t1 1l280 282q9 8 9 20t-8.5 20t-20 8t-19.5 -8z" />
    <glyph glyph-name="qietu10" unicode="&#xe688;" 
d="M454 418q-68 -7 -113.5 -43.5t-40.5 -80.5q5 -45 56 -72t119.5 -20t113.5 43.5t40 80.5q-4 45 -55.5 72t-119.5 20zM534 277q-14 -32 -48.5 -46.5t-69.5 -3.5q-32 10 -44.5 38.5t1.5 58.5q15 29 47 43t65 6q33 -9 47.5 -37t1.5 -59zM441 310q-10 4 -22 0.5t-19 -14.5
q-6 -11 -3.5 -21.5t13 -15.5t23 -1t19.5 14q6 12 3 22.5t-14 15.5zM476 324q-11 4 -15 -6q-6 -10 4 -14t16 6q4 10 -5 14zM512 896q-212 0 -362 -150t-150 -362t150 -362t362 -150t362 150t150 362t-150 362t-362 150zM474 169q-58 0 -110 17t-86.5 51.5t-34.5 78.5
q0 73 82 154q53 53 105.5 73.5t75.5 -2.5q21 -20 6 -64q-2 -6 1.5 -7.5t7.5 0.5l5 2q42 18 75.5 18t47.5 -20q14 -21 0 -54q-2 -8 -0.5 -10t9.5 -4q28 -9 47.5 -27.5t19.5 -47.5q-1 -57 -72.5 -107.5t-178.5 -50.5zM682 459q5 18 -7 34q-16 16 -33 10v0q-8 -1 -14 3t-8 11
q-2 8 2.5 14t11.5 8q41 8 67 -22q27 -31 15 -69q-3 -7 -9.5 -10.5t-13.5 -1.5t-10.5 9t-0.5 14v0zM787 425v0q-2 -8 -10 -12t-16 -2q-8 3 -12 11t-1 15v0q8 26 2.5 53.5t-25 48.5t-45.5 29.5t-53 2.5q-9 -2 -16 2.5t-9 13t2.5 16t13.5 9.5v0q37 7 74.5 -4.5t64 -40.5
t34.5 -68t-4 -74z" />
    <glyph glyph-name="iconfontunfold" unicode="&#xe644;" 
d="M942 589.5q-9 9.5 -21.5 10t-21.5 -7.5l-370 -370q-11 -12 -17 -12t-18 12l-370 370q-8 8 -21 7.5t-22 -10t-9.5 -22t8.5 -21.5l411 -411q7 -7 18 -8h5q12 1 19 8l411 411q8 9 7.5 21.5t-9.5 22z" />
    <glyph glyph-name="shaixuan" unicode="&#xe637;" 
d="M608.5 -64q-13.5 0 -23 9.5t-9.5 22.5v480q0 12 9 21l208 235h-563l210 -235q8 -9 8 -21v-289l51 -41q10 -8 11.5 -21.5t-7 -23.5t-21.5 -11.5t-24 6.5l-62 51q-12 10 -12 25v292l-249 279q-14 15 -5.5 34t29.5 19h706q21 0 29.5 -19t-5.5 -34l-249 -279v-468
q0 -13 -9 -22.5t-22.5 -9.5z" />
    <glyph glyph-name="dingwei2" unicode="&#xe6ac;" 
d="M512 767q-109 0 -185.5 -79t-76.5 -190q0 -52 35.5 -140.5t81 -166.5t88.5 -136t57 -58q15 0 58 58t88.5 136t80.5 166.5t35 140.5q0 111 -76.5 190t-185.5 79zM512 388q-51 0 -87.5 37t-36.5 90t36.5 90t87.5 37t87.5 -37t36.5 -90t-36.5 -90t-87.5 -37z" />
    <glyph glyph-name="shenfen" unicode="&#xe6b3;" 
d="M169 747q-46 0 -75.5 -29.5t-29.5 -75.5v-507q0 -46 29.5 -75.5t75.5 -29.5h686q46 0 75.5 29.5t29.5 75.5v507q0 46 -29.5 75.5t-75.5 29.5h-686zM855 75h-686q-29 0 -44.5 16t-15.5 44v507q0 29 15.5 44.5t44.5 15.5h686q28 0 44 -15.5t16 -44.5v-507l-11 -27
q-19 -33 -49 -33zM607 478h153q8 0 14 6.5t6 16t-6 16t-14 6.5h-153q-8 0 -14.5 -6.5t-6.5 -16t6.5 -16t14.5 -6.5v0zM607 359h153q8 0 14 6.5t6 15.5t-6 16t-14 7h-153q-8 0 -14.5 -7t-6.5 -16t6.5 -15.5t14.5 -6.5v0zM834 284h-227q-8 0 -14.5 -6.5t-6.5 -15.5t6.5 -16
t14.5 -7h227q9 0 15 7t6 16t-6 15.5t-15 6.5v0zM491 314q-37 39 -90 54l-3 1l3 2q28 15 44 41.5t16 57.5q0 46 -33.5 79.5t-80.5 33.5t-80.5 -33.5t-33.5 -79.5q0 -31 16.5 -57.5t44.5 -41.5l2 -2l-3 -1q-52 -15 -90 -54q-38 -40 -48 -94q-2 -9 3 -16t13 -8q2 -1 4 -1
q17 0 21 17q10 53 52.5 85t99 32t99 -32t52.5 -86q3 -16 20 -16h4q8 2 13 9t4 15q-11 54 -49 95v0zM348 538q31 0 52.5 -22t21.5 -53t-21.5 -52.5t-52.5 -21.5t-53 21.5t-22 52.5t22 53t53 22v0zM348 538z" />
    <glyph glyph-name="fankui" unicode="&#xe61e;" 
d="M960 382q0 -91 -35.5 -173.5t-95 -142.5t-142.5 -95.5t-174 -35.5t-174 35.5t-143 95.5t-95.5 142.5t-35.5 174t35.5 174t95.5 142.5t143 95.5t174 35.5t174 -35.5t142.5 -95.5t95 -142.5t35.5 -174.5v0zM513 749q-100 0 -184 -49t-133 -133.5t-49 -184t49 -184
t133 -133.5t183.5 -49t184 49t133.5 133.5t49 184t-49 184t-133.5 133.5t-183.5 49v0zM513 749zM553 271h-81q-1 15 -1 21q0 40 13 65t52.5 57t46.5 42q12 15 12 34q0 26 -21 44.5t-56 18.5q-34 0 -57 -19t-31 -59l-82 10q3 57 48 96.5t118 39.5q77 0 122.5 -40t45.5 -93
q0 -30 -16.5 -56.5t-71.5 -71.5q-28 -24 -35 -38t-6 -51v0zM472 151v89h89v-89h-89v0zM472 151z" />
    <glyph glyph-name="daipingjia" unicode="&#xe618;" 
d="M967 340v261q0 40 -27.5 68t-66.5 28h-697q-39 0 -66.5 -28t-27.5 -68v-483q0 -40 27.5 -68.5t66.5 -28.5h251l98 -102l97 102h251q39 0 66.5 28.5t27.5 68.5v109h-1v113h1zM905 401h-2l2 -33v0v-2v-169v-3v-3v-73q0 -15 -9.5 -25t-22.5 -10h-277l-71 -75l-72 75h-277
q-13 0 -22.5 10t-9.5 25v483q0 14 9.5 24.5t22.5 10.5v0h697q13 0 22.5 -10.5t9.5 -24.5v-200v0zM807 253h-397q-8 0 -13.5 -6t-5.5 -14.5t5.5 -14.5t13.5 -6h397q7 0 13 6t6 14.5t-6 14.5t-13 6zM807 385h-295q-8 0 -13.5 -6t-5.5 -15t5.5 -15t13.5 -6h295q7 0 13 6t6 15
t-6 15t-13 6zM807 516h-193q-8 0 -13.5 -6t-5.5 -14.5t5.5 -15t13.5 -6.5h193q7 0 13 6.5t6 15t-6 14.5t-13 6z" />
    <glyph glyph-name="weixin1" unicode="&#xe604;" 
d="M507 550q19 0 30.5 11.5t11.5 30.5t-11.5 30.5t-30.5 11.5q-20 0 -35.5 -11.5t-15.5 -30t15.5 -30.5t35.5 -12v0zM507 550zM271 634q-20 0 -35.5 -11.5t-15.5 -30t15.5 -30.5t35.5 -12q19 0 30.5 11.5t11.5 30.5t-11.5 30.5t-30.5 11.5v0zM271 634zM1011 281
q0 99 -80.5 174t-195.5 84q1 3 0 5q-22 106 -123.5 177.5t-230.5 71.5q-96 0 -177 -40.5t-128 -110t-47 -151.5q0 -136 131 -233l-30 -91q-3 -9 5 -16q4 -4 10 -4q4 0 7 2l113 56l14 -2q65 -14 102 -14q9 0 25 2.5t18 4.5q31 -77 109 -126t176 -49q36 0 99 16l87 -48
q4 -2 8 -2q5 0 9 3q8 7 5 17l-22 74q116 91 116 200v0zM410 230q-15 -1 -29 -1q-33 0 -93 12l-18 4q-5 1 -10 -1l-81 -41l21 64q3 10 -6 16q-123 87 -123 208q0 108 90.5 184.5t219.5 76.5q113 0 202.5 -61t109.5 -153q-119 -2 -202.5 -75t-83.5 -176q0 -28 8 -57h-5v0z
M860 107q-8 -6 -5 -16l14 -45l-57 31q-3 1 -7 1h-3q-62 -16 -93 -16q-106 0 -182 64t-76 154t76 154t182 64q105 0 181.5 -64.5t76.5 -153.5q0 -93 -107 -173v0v0zM868 99zM616 390q-12 0 -22.5 -10.5t-10.5 -23t10.5 -23t22.5 -10.5q19 0 30.5 10t11.5 23t-11.5 23.5
t-30.5 10.5v0zM616 390zM802 390q-13 0 -23.5 -10.5t-10.5 -23t10.5 -23t23.5 -10.5q18 0 30 10t12 23t-12 23.5t-30 10.5v0zM802 390z" />
    <glyph glyph-name="icon3-copy" unicode="&#xe62f;" 
d="M514 864l-387 -125l2 -488v-6q18 -83 90 -155q57 -58 258 -165q17 -10 20 -11l14 -8l18 9q210 105 279 175q33 33 56 73.5t27.5 56t6.5 25.5l3 494zM839 254q-16 -65 -73 -122q-59 -60 -254 -159q-5 3 -7 4q-193 104 -244 155q-57 57 -73 122l-2 441l328 106l327 -106z
M338 177v0h53v21h270v-21h53v146h-376v-146zM391 286h270v-53h-270v53zM520 617l12 -23h-120l24 47l-55 6q-33 -80 -98 -145l9 -32l6 -23q12 12 22.5 23.5t19.5 21.5v-151h51v16h354v37h-166v34h145v31h-145v33h145v33h-145v33h158v36h-147q-5 13 -12.5 27.5t-16.5 27.5
l-53 -8zM528 394h-137v34h137v-34zM528 459h-137v33h137v-33zM528 525h-137v33h137v-33z" />
    <glyph glyph-name="faxian" unicode="&#xe60e;" horiz-adv-x="1390" 
d="M1307 567q-15 54 -75 90t-153 52q28 -33 49 -69q109 -31 125 -88q9 -33 -16 -76q-28 -48 -95 -100q0 1 0.5 3t0.5 4q0 91 -36 174t-96 143.5t-143 96t-174.5 35.5t-174.5 -35.5t-143.5 -96t-96 -143.5t-35.5 -174q0 -112 53 -211q-68 14 -110.5 39t-52 58t15.5 76
q12 21 39 49q1 45 9 86q-70 -57 -101 -115.5t-17 -110.5q16 -58 84.5 -95.5t173.5 -50.5q63 -81 156 -128t199 -47q164 0 288.5 105t153.5 263q97 65 143 135t29 131v0zM693 -10q-79 0 -150 29.5t-125 83.5q16 -1 29 -1q154 0 321 43q165 42 299 115q-39 -119 -141.5 -194.5
t-232.5 -75.5v0zM1083 335q-138 -87 -329 -136q-160 -41 -307 -41q-2 0 -40.5 -1t-38.5 1q-68 100 -68 225q0 106 53 197t143.5 143.5t197 52.5t197 -52.5t143 -143.5t52.5 -197q0 -22 -3 -48v0zM497 270q-47 0 -79.5 33t-32.5 79.5t32.5 79.5t79 33t79.5 -33t33 -79.5
t-33 -79.5t-79 -33v0zM497 439q-23 0 -39.5 -16.5t-16.5 -40t16.5 -39.5t39.5 -16t39.5 16t16.5 39.5t-16.5 40t-39.5 16.5v0zM735 579q-29 0 -49.5 20.5t-20.5 49.5t20.5 50t50 21t50 -21t20.5 -50t-20.5 -49.5t-50.5 -20.5v0zM735 663q-5 0 -9.5 -4t-4.5 -9.5t4.5 -10
t10 -4.5t10 4.5t4.5 10t-4.5 9.5t-10.5 4v0zM890 326q-23 0 -39.5 16.5t-16.5 40t16.5 40t39.5 16.5t39.5 -16.5t16.5 -40t-16.5 -40t-39.5 -16.5v0zM890 326z" />
    <glyph glyph-name="wuliu" unicode="&#xe635;" 
d="M352 320h-128q-13 0 -22.5 9.5t-9.5 22.5t9.5 22.5t22.5 9.5h96v96q0 13 9.5 22.5t22.5 9.5t22.5 -9.5t9.5 -22.5v-128q0 -13 -9.5 -22.5t-22.5 -9.5zM702 229q-46 0 -81.5 -28.5t-45.5 -72.5h-124q-10 44 -45.5 72.5t-81.5 28.5q-54 0 -92.5 -38.5t-38.5 -92.5
t38.5 -92.5t92.5 -38.5q44 0 79 27t47 70h126q12 -43 46.5 -70t79.5 -27q54 0 92.5 38.5t38.5 92.5t-38.5 92.5t-92.5 38.5zM323.5 31q-27.5 0 -47 19.5t-19.5 47.5t19.5 47.5t47 19.5t47.5 -19.5t20 -47.5t-20 -47.5t-47.5 -19.5zM702 31q-28 0 -47.5 19.5t-19.5 47.5
t19.5 47.5t47.5 19.5t47.5 -19.5t19.5 -47.5t-19.5 -47.5t-47.5 -19.5zM864 800h-464q-33 0 -56.5 -23.5t-23.5 -56.5v-92l-195 -98l-4 -2q-56 -40 -56 -112v-322q0 -13 9.5 -22.5t23 -9.5t22.5 9.5t9 22.5v322q0 38 27 58l210 105q1 1 2.5 2l1.5 1q4 3 5 4q2 2 4 5q2 5 3 6
q0 1 1 6q0 1 0.5 2.5t0.5 2.5v112q0 7 4.5 11.5t11.5 4.5h464q13 0 22.5 -9.5t9.5 -22.5v-608q0 -13 9.5 -22.5t22.5 -9.5t22.5 9.5t9.5 22.5v608q0 39 -28 67.5t-68 28.5z" />
    <glyph glyph-name="health_goods" unicode="&#xe646;" 
d="M852 509v-499q0 -57 -40 -97t-96 -40h-409q-57 0 -97 40t-40 97v511q0 23 22 31l139 140q-39 4 -66 33t-27 69q0 42 30 72t73 30h341q42 0 72 -30t30 -72q0 -39 -25.5 -67.5t-62.5 -33.5l150 -152q12 -14 6 -32v0zM716 794q0 14 -10 24t-24 10h-341q-14 0 -24 -10
t-10 -24t10 -24t24 -10h341q14 0 24 10t10 24v0zM784 248v171h-273v-341h273v170zM477 10q-14 0 -24 10t-10 24v409q0 14 10 24t24 10h307v21l-183 183h-176l-187 -188v-493q0 -29 20 -49t49 -20h409q28 0 48 20t20 49h-307zM750 214h-34v-34q0 -14 -10 -24t-24 -10t-24 10
t-10 24v34h-35q-14 0 -24 10t-10 24t10 24t24 10h35v34q0 15 10 25t24 10t24 -10t10 -25v-34h34q14 0 24 -10t10 -24t-10 -24t-24 -10v0z" />
    <glyph glyph-name="food_goods" unicode="&#xe647;" 
d="M159 503q-1 -31 4 -60q21 -128 117 -211q60 -52 136 -74l2 -175q0 -32 22.5 -53.5t54.5 -20.5l40 1q31 0 53.5 22.5t23.5 52.5l3 122q2 13 -8 21q-7 6 -17 5.5t-17 -8.5t-6 -18l-6 -120q0 -11 -8 -19t-19 -8l-41 -1q-10 0 -17 7t-7 17l-2 165q37 -5 74 -2q41 4 78 15
q22 8 32 13q5 2 9 4q68 31 117 87q63 72 80.5 164.5t-13 181t-103 151.5t-164.5 81t-181 -12.5t-151 -102.5q-84 -96 -86 -225zM313 269q-51 45 -77.5 106t-26.5 126q3 71 43 128q57 81 154 97.5t178 -40t98 -152.5q17 -59 -12 -112q-30 -54 -90 -71q-60 -18 -115 11.5
t-73 89.5q-9 30 6 57.5t45 36.5t57 -6t36 -45l8 -24q2 -7 7 -11q8 -7 18.5 -6.5t17.5 8.5q8 10 5 23l-7 24q-15 50 -61 75t-96 10t-74.5 -60.5t-9.5 -95.5l9 -24q30 -69 99 -101t142 -11q58 17 96 61q14 16 24 35q40 72 16 152q-23 114 -120 180t-212 46q-1 0 -2 -0.5
t-2 -0.5q76 33 162 20t153 -71q94 -82 103 -206.5t-73 -219t-206.5 -103t-219.5 73.5z" />
    <glyph glyph-name="face_goods" unicode="&#xe648;" 
d="M708 285v160q0 13 -9 22.5t-23 9.5v384q0 14 -11 24t-26 7q-70 -11 -146 -46q-31 -14 -64 -38t-45 -35t-19 -18q-9 -10 -9 -22v-256q-13 0 -22.5 -9.5t-9.5 -22.5v-160q-13 0 -22.5 -9.5t-9.5 -22.5v-346q0 -13 9.5 -22.5t22.5 -9.5h384q14 0 23 9.5t9 22.5v346
q0 13 -9 22.5t-23 9.5zM420 719q50 46 99 69q44 20 93 33v-344h-192v242zM388 413h256v-128h-256v128zM676 -61h-320v282h320v-282zM420 -6h96q14 0 23 9.5t9 23t-9 22.5t-23 9h-64v103q0 13 -9 22.5t-22.5 9.5t-23 -9.5t-9.5 -22.5v-135q0 -13 9.5 -22.5t22.5 -9.5z" />
    <glyph glyph-name="xiexianicon" unicode="&#xe601;" 
d="M731 833l13 -8l-451 -890l-13 8z" />
    <glyph glyph-name="shouhou" unicode="&#xe623;" 
d="M894 473q-10 8 -23.5 6t-20.5 -12l-11 -15l-4 16q-30 124 -132.5 202.5t-231.5 75.5q-37 -1 -74 -10q-96 -23 -166.5 -89.5t-98.5 -159t-5 -187.5q30 -124 133 -202.5t231 -75.5q38 1 75 10q103 25 177 102l1 2l3 3l1 2q4 7 4 14q0 12 -9 20t-20 8q-6 0 -11 -3l-2 1
l-8 -8q-62 -65 -149 -86q-31 -7 -63 -8q-107 -3 -193 62.5t-111 169.5q-19 80 4.5 157.5t82 133t139.5 74.5q30 7 62 8q107 3 193 -62.5t111 -169.5q1 -4 1 -6l-12 10q-10 7 -23.5 5.5t-21.5 -11.5q-8 -11 -6 -23.5t12 -20.5l73 -55v0l3 -3l1 1q9 -5 19 -4q14 2 22 12l55 73
q7 10 5.5 23t-12.5 20v0zM503 203h2v87h84l7 1v1q15 4 15 20q0 9 -6.5 15t-15.5 6h-84v33h84h7v1q15 5 15 20q0 9 -6.5 15t-15.5 6h-84v18l88 85l5 4h-1q3 5 3 10q1 9 -5 15q-6 7 -15 7.5t-16 -5.5l-81 -77l-85 81q-7 6 -16.5 5.5t-14.5 -7.5q-11 -12 -2 -25l-1 -1l97 -91
v-19h-92v-1q-15 -5 -15 -20.5t15 -19.5v-1h92v-33h-92v-1q-15 -5 -15 -20.5t15 -19.5v-2h92v-81v-6h1q5 -15 21 -15t20 15v0z" />
    <glyph glyph-name="yanzm" unicode="&#xe60b;" 
d="M987 644q-15 0 -26 10.5t-11 26.5q0 9 -6.5 15.5t-15.5 6.5h-832q-9 0 -15.5 -6.5t-6.5 -15.5q0 -16 -11 -26.5t-26 -10.5t-26 10.5t-11 26.5q0 40 28.5 68t67.5 28h832q39 0 67.5 -28t28.5 -68q0 -16 -11 -26.5t-26 -10.5v0zM928 -9h-832q-39 0 -67.5 28t-28.5 68
q0 15 11 26t26 11t26 -11t11 -26q0 -9 6.5 -15.5t15.5 -6.5h832q9 0 15.5 6.5t6.5 15.5q0 15 11 26t26 11t26 -11t11 -26q0 -40 -28.5 -68t-67.5 -28v0zM129 226v40h58v232l-64 -22l-4 41l91 31h21v-282h47v-40h-149zM394 404q-15 19 -15 49q0 41 29 68t75 27t75 -26.5
t29 -71.5q0 -33 -17 -60.5t-55 -60.5q-32 -27 -64 -63h141v-40h-215v22q52 57 112 113q53 48 53 89q0 26 -16 42t-44 16q-26 0 -42 -15t-16 -37q0 -18 12 -36zM729 307q27 -47 68 -47q28 0 45.5 16.5t17.5 43.5q0 25 -14.5 39t-39.5 14h-23v39h23q45 0 45 47
q0 22 -14.5 35.5t-38.5 13.5q-41 0 -65 -50l-36 22q33 68 101 68q44 0 71 -23t27 -63q0 -46 -43 -70q52 -20 52 -73q0 -45 -30.5 -72t-78.5 -27q-68 0 -104 60zM729 307z" />
    <glyph glyph-name="search" unicode="&#xe60f;" 
d="M905 -62q-16 0 -30 9q-2 2 -4 3q-1 2 -3 4q-4 3 -10 9q-11 10 -31 30q-34 33 -93 91q-47 45 -103 101q-99 -69 -205 -69q-73 0 -140 28q-64 27 -114 76.5t-77 113.5q-29 67 -29 139.5t29 138.5q27 64 77 113.5t114 76.5q67 28 140.5 28t139.5 -28q65 -27 115 -76.5
t77 -113.5q28 -66 28 -139q0 -120 -79 -218q54 -53 99 -97q59 -58 93 -90l31 -31l9 -9q17 -18 17 -39l1 -21l-16 -15q-15 -15 -36 -15v0zM426.5 728q-106.5 0 -182 -74.5t-75.5 -180t75.5 -180t181.5 -74.5q89 0 172 70l2 1q84 79 84 183q0 106 -75.5 180.5t-182 74.5z" />
    <glyph glyph-name="minus-circle" unicode="&#xe641;" 
d="M864 352h-701q-13 0 -22.5 9.5t-9.5 22.5t9.5 22.5t22.5 9.5h701q13 0 22.5 -9.5t9.5 -22.5t-9.5 -22.5t-22.5 -9.5z" />
    <glyph glyph-name="tuihuanhuo" unicode="&#xe619;" horiz-adv-x="3002" 
d="M1854 434v47h-504l87 40l-20 43l-183 -85q-17 -8 -13 -26.5t23 -18.5h610zM1854 334h-610v-47h504l-87 -40l20 -43l183 85q17 8 13 26.5t-23 18.5zM1911 746.5q-73 72.5 -166 111t-196 38.5t-196 -38.5t-166 -111t-111.5 -166t-38.5 -196.5t38.5 -196t111 -166
t166 -111.5t196.5 -38.5t196 38.5t166 111t111.5 166t38.5 196.5t-38.5 196.5t-111.5 166zM1549 -81q-94 0 -180.5 37t-148.5 99t-99 148.5t-37 180.5t37 180.5t99 148.5t148.5 99t180.5 37t180.5 -37t148.5 -99t99 -148.5t37 -180.5t-37 -180.5t-99 -148.5t-148.5 -99
t-180.5 -37z" />
    <glyph glyph-name="service-import-bonded" unicode="&#xe62c;" 
d="M457.5 320q5.5 6 5.5 15t-5 15q-7 8 -31 55h26q8 0 13.5 6t5.5 14.5t-5.5 15t-13.5 6.5h-51v81q34 3 51 8q7 2 11 9.5t2.5 16t-8 13t-14.5 2.5q-40 -11 -125 -11q-7 0 -12.5 -6t-5.5 -15t5.5 -15t12.5 -6q23 0 46 1v-78h-55q-8 0 -13 -6.5t-5 -15t5 -14.5t13 -6h43
q-39 -75 -55 -99q-5 -7 -4 -15.5t7 -14t14 -4t12 7.5q22 33 38 61v-169q0 -8 5.5 -14.5t13.5 -6.5t13 6.5t5 14.5v190q14 -22 29 -41v0q5 -6 13 -6.5t13.5 5.5zM724.5 270q-7.5 0 -13 -6t-5.5 -14v-39q0 -5 -5.5 -9.5t-8.5 -4.5h-32q-8 0 -12 4q-3 3 -3 11v106v2h24
q20 0 33.5 13.5t13.5 32.5v90q0 19 -13.5 32.5t-33.5 13.5h-19q28 37 36 65q3 9 -1 16.5t-12 10t-15.5 -1.5t-9.5 -12q-9 -27 -39 -63q-5 -6 -4 -15h-37l3 3q6 6 6.5 14.5t-5.5 14.5q-22 25 -33 49q-6 11 -19 11q-4 0 -9 -2q-7 -4 -9.5 -12t0.5 -16q13 -27 41 -59l4 -3h-18
q-19 0 -33 -13.5t-14 -32.5v-90q0 -19 14 -32.5t33 -13.5h8q-1 -15 -4 -30t-11 -34.5t-25.5 -35t-42.5 -22.5q-8 -2 -12 -9.5t-2 -16.5q4 -15 20 -15h5q56 17 83.5 63t29.5 100h29v-2v-106q-1 -23 14 -39t39 -16h32q18 0 35 16t17 38v39q0 8 -6 14t-13.5 6zM529 362
q-6 0 -6 4v90q0 4 6 4h140q7 0 7 -4v-90q0 -4 -7 -4h-140zM512 812q-116 0 -214.5 -57.5t-156 -156t-57.5 -214.5t57.5 -214.5t156 -156t214.5 -57.5t214.5 57.5t156 156t57.5 214.5t-57.5 214.5t-156 156t-214.5 57.5zM512 12q-101 0 -186.5 50t-135.5 135.5t-50 186.5
t50 186.5t135.5 135.5t186.5 50t186.5 -50t135.5 -135.5t50 -186.5t-50 -186.5t-135.5 -135.5t-186.5 -50z" />
    <glyph glyph-name="wenti" unicode="&#xe630;" 
d="M513 583q-53 0 -86 -36.5t-33 -111.5t33 -112.5t83 -37.5q19 0 36 6q-27 18 -54 27l25 50q42 -15 81 -44q17 20 25 47q9 28 9 64q0 75 -33 111.5t-86 36.5zM897 439q0 106 -51.5 196.5t-140 143t-193.5 52.5t-193.5 -52.5t-140 -143t-51.5 -196.5q0 -92 39 -172.5
t106 -135.5v0q42 -39 101.5 -73.5t113 -56t103.5 -36.5t77.5 -21.5t30.5 -6.5l-35 140q105 46 169.5 144t64.5 218zM706 177q-20 6 -39 17q-4 1 -58 38q-42 -19 -93 -19q-99 0 -155 58.5t-56 163.5q0 106 56 164.5t153 58.5q95 0 151 -58.5t56 -164.5q0 -55 -15 -98
q-12 -32 -38 -62q32 -23 70 -36z" />
    <glyph glyph-name="xinxi" unicode="&#xe606;" 
d="M640 480h-256q-13 0 -22.5 9.5t-9.5 22.5t9.5 22.5t22.5 9.5h256q13 0 22.5 -9.5t9.5 -22.5t-9.5 -22.5t-22.5 -9.5zM579 352h-195q-13 0 -22.5 9.5t-9.5 22.5t9.5 22.5t22.5 9.5h195q13 0 22.5 -9.5t9.5 -22.5t-9.5 -22.5t-22.5 -9.5zM962 448q0 104 -60 192.5t-163 140
t-224.5 51.5t-225 -51.5t-163.5 -140t-60 -192.5q0 -87 45.5 -166t127.5 -135q11 -7 24 -4.5t20.5 13.5t5 24t-13.5 20q-69 47 -107 112t-38 136q0 87 51.5 160.5t140 116.5t192.5 43t192.5 -43t140 -116.5t51.5 -160.5t-51.5 -160.5t-140 -116.5t-192.5 -43q-1 0 -5 -1
q-12 2 -22 -3.5t-14 -16.5q-9 -26 -94 -74q17 58 3 79q-11 16 -30 16q-13 0 -22.5 -9.5t-9.5 -22.5q0 -9 5 -16q-6 -34 -33 -100q-9 -20 7 -35q9 -9 22 -9q7 0 13 3q145 64 188 125q120 2 221 53.5t160 139.5t59 191z" />
    <glyph glyph-name="pinleiquexiang01" unicode="&#xe68d;" 
d="M275 791v-16v16zM744 239v-130q0 -19 -13.5 -32.5t-33 -13.5t-33 13.5t-13.5 32.5v176q-43 34 -68 84t-25 107q0 2 1 15h-163h-2h-154h-177q-19 0 -32.5 -13.5t-13.5 -32.5t13.5 -32.5t32.5 -13.5h42l99 -393v0q4 -15 16.5 -24.5t28.5 -9.5v0v0v0h506h14h6q16 0 28.5 9.5
t16.5 24.5v0l60 236q-36 -11 -74 -11q-31 0 -62 8zM373 109q0 -19 -13.5 -32.5t-33 -13.5t-33 13.5t-13.5 32.5v244q0 19 13.5 32.5t33 13.5t33 -13.5t13.5 -32.5v-244zM558 109q0 -19 -13.5 -32.5t-32.5 -13.5t-32.5 13.5t-13.5 32.5v244q0 19 13.5 32.5t32.5 13.5
t32.5 -13.5t13.5 -32.5v-244zM564 728l52 -96q31 37 73 59l-43 80v0q-13 25 -41 25q-19 0 -33 -13t-14 -32q0 -12 7 -23h-1zM460 728v0q6 11 6 23q0 19 -14 32t-33 13q-28 0 -41 -25v0l-126 -234h105zM806 674q-83 0 -142 -58t-59 -140.5t59 -140.5t142 -58t142 58t59 140.5
t-59 140.5t-142 58zM899 430h-186q-19 0 -32.5 13.5t-13.5 32.5t13.5 32t32.5 13h186q19 0 32.5 -13t13.5 -32t-13.5 -32.5t-32.5 -13.5z" />
    <glyph glyph-name="daifahuo" unicode="&#xe61b;" 
d="M171 765q-66 0 -113.5 -47.5t-47.5 -114t47.5 -114.5t115 -48t114 47.5t46.5 114.5v0q0 67 -47 114.5t-115 47.5zM171 481q-50 0 -86 36t-36 86.5t36 86.5t86 36q51 0 87 -36t36 -87t-36 -86.5t-87 -35.5v0zM189 704h-33v-121h124v35h-91v86zM1019 413l-153 193
q-8 8 -19 8h-198v24q0 24 -17 43l-3 3q-19 19 -46 19h-223q10 -17 18 -47h206q7 0 13 -6l2 -2q4 -4 4 -11v-479h-184q-10 46 -46 74v0l-4 4q-29 20 -65 21.5t-67 -16.5v2l-15 -14l-5 -2q-31 -26 -39 -68h-36q-8 0 -13 5.5t-5 13.5v217q-26 7 -48 17v-234q0 -27 19.5 -46.5
t46.5 -19.5v0h36q8 -40 39 -69v0l3 -3l16 -13v2q27 -16 58 -17t58 13v-3l14 11l2 1l4 3q37 27 47 74h265q9 -42 42 -70t76 -29v-1l11 1h8q39 6 67.5 33t36.5 65h45q22 0 37.5 16t15.5 38v235q1 7 -4 14zM355 86l-1 -1q-20 -23 -51.5 -25t-54.5 19q-7 5 -14 16l-1 1
q-12 18 -11.5 40t12.5 40v0q16 27 47 33.5t57 -10.5q10 -7 16 -15v0q19 -21 19 -49t-18 -49v0zM820 61l-8 -1h-6q-31 2 -52 25.5t-19 53.5q1 29 21 49t49 23l7 -1q31 -4 51 -27.5t17 -54.5q-2 -24 -18.5 -42.5t-41.5 -24.5v0zM976 166q0 -5 -5 -7v0h-44q-8 39 -36.5 65.5
t-67.5 32.5v1h-12l-7 1q-44 -1 -77.5 -29t-41.5 -71h-35v408h186l30 -38h-85q-23 0 -39 -15.5t-16 -38.5v-95q0 -23 16 -39t39 -16h196zM976 373h-197q-6 0 -6 6v95q0 7 8 7h123l72 -91v-17z" />
    <glyph glyph-name="daishouhuo" unicode="&#xe629;" 
d="M290 389h-85q-11 0 -18.5 7.5t-7.5 18t7.5 18t18.5 7.5h85q10 0 17.5 -7.5t7.5 -18t-7 -18t-18 -7.5zM842 751h-202h-266h-203q-36 0 -62 -26t-26 -62v-555q0 -36 26 -61.5t62 -25.5h671q36 0 62 25.5t26 61.5v555q0 36 -26 62t-62 26zM879 663v-110h-214v147h177
q15 0 26 -11t11 -26zM614 700v-401l-88 108q-7 9 -19.5 9t-19.5 -9l-88 -108v401h215zM171 700h177v-147h-213v110q0 15 10.5 26t25.5 11zM842 72h-671q-15 0 -25.5 10.5t-10.5 25.5v394h213v-275q0 -19 17 -25t28 8l114 140l113 -140q8 -9 20 -9q4 0 8 1q17 6 17 25v275
h214v-394q0 -15 -11 -25.5t-26 -10.5z" />
    <glyph glyph-name="guanyu" unicode="&#xe620;" 
d="M64 385q2 188 132 317q140 140 340 131q173 -7 295 -130q140 -140 132 -338q-8 -185 -144 -311t-323 -119q-185 7 -312 144q-118 127 -120 306zM520 763q-156 -2 -263 -102q-114 -106 -121 -259q-7 -160 103 -277q106 -112 260 -118q158 -7 274 103q112 106 118 259
q7 158 -101 273q-111 118 -270 121zM549 302v-111q1 -14 -10 -25t-25 -11q-13 1 -22.5 8.5t-12.5 19.5q-1 7 -1 13q-1 105 -1 211q0 29 22 38q18 7 34 -2.5t16 -28.5v-112zM575 577q1 -22 -16.5 -39.5t-42.5 -15.5q-21 1 -37 17.5t-16 40.5q1 21 18 38t41 15q22 -1 38 -17
t15 -39z" />
    <glyph glyph-name="shangxia" unicode="&#xe638;" 
d="M837 262h-650q-24 0 -35.5 -12t0.5 -24q19 -20 166.5 -174.5t158.5 -165.5q14 -13 36.5 -12.5t35.5 12.5q5 5 159 167.5t164 172.5q12 12 0 23.5t-35 12.5zM187 506h650q23 0 35 11.5t0 24.5q-9 10 -164 172.5t-161 168.5q-11 12 -34 12.5t-38 -12.5q-5 -7 -79.5 -85.5
t-155.5 -163t-88 -92.5q-12 -12 -0.5 -24t35.5 -12z" />
    <glyph glyph-name="baby_goods" unicode="&#xe649;" 
d="M313 131q-34 0 -58 -24t-24 -58t24 -58t58 -24t58 24t24 58t-24 58t-58 24zM313 15q-14 0 -24 10t-10 24t10 24t24 10t24 -10t10 -24t-10 -24t-24 -10zM649 131q-34 0 -58 -24t-24 -58t24 -58t58 -24t58 24t24 58t-24 58t-58 24zM649 15q-14 0 -24 10t-10 24t10 24t24 10
t24 -10t10 -24t-10 -24t-24 -10zM927 698q-5 8 -13 17.5t-29 22t-41 10.5q-48 -6 -78 -83l-81 -230h-16q7 9 5 19l-65 335q-3 18 -22 19q-6 1 -14.5 1t-32 -1t-47 -4t-55 -10.5t-60.5 -18.5t-59.5 -30t-54.5 -43q-93 -91 -86 -247q1 -13 14 -20h-27q-10 0 -17 -7t-7 -17
q0 -87 45 -151q6 -8 15.5 -9.5t18 4t10 15.5t-4.5 18q-30 42 -35 99h611q-5 -81 -56 -136q-73 -80 -230 -80q-8 0 -34 1.5t-79.5 13t-94.5 33.5q-9 4 -18.5 1.5t-14 -11.5t-1.5 -18.5t12 -14.5q43 -23 98.5 -36t82 -15t46.5 -2h3q178 0 265 95q22 24 37 52.5t20.5 51.5
t9.5 45t2.5 32.5t-0.5 13.5q-1 9 -8 15.5t-16 6.5h-89l75 214q19 49 38 51q9 1 20 -8.5t18 -19.5q5 -8 15 -10t18 3t10.5 15t-3.5 18zM226 458q-6 134 71 210q29 29 69 49t80 28.5t67.5 11.5t52.5 4l61 -316q1 -5 4 -10h-418q14 7 13 23z" />
    <glyph glyph-name="zhifubaozhifu" unicode="&#xe67e;" horiz-adv-x="1025" 
d="M1024 195v504q0 82 -57.5 139.5t-139.5 57.5h-630q-82 0 -139.5 -57.5t-57.5 -139.5v-630q0 -82 57.5 -139.5t139.5 -57.5h630q72 0 127 46t67 116q-283 122 -396 177q-72 -87 -148.5 -130.5t-177.5 -43.5q-105 0 -169 56.5t-56 137.5q3 24 10.5 46t26.5 47.5t46.5 42.5
t74.5 25.5t107 3.5q23 -2 43 -5t40 -7l32.5 -6.5t33.5 -9t30.5 -9.5t35 -11.5t35.5 -12.5q35 65 57 140h-398v39h197v71h-240v43h240v102q0 2 1 4.5t6 7t13 4.5h98v-118h256v-43h-256v-71h209q-28 -116 -85 -213q27 -9 111.5 -36t154.5 -48l71 -22v0v0v0zM284 104
q-36 0 -65 7.5t-46.5 19t-30.5 26t-17.5 29.5t-7 28.5t0.5 23.5q7 35 42 63t93 28q131 0 284 -75q-55 -71 -120 -110.5t-133 -39.5v0v0z" />
    <glyph glyph-name="wuliu1" unicode="&#xe683;" horiz-adv-x="1032" 
d="M28 294h400q13 0 20.5 8.5t7.5 20.5q0 13 -8 20.5t-20 7.5h-400q-11 2 -19.5 -6t-8.5 -20t8.5 -21.5t19.5 -9.5v0zM28 466h400q13 0 20.5 8t7.5 20q0 13 -8 20.5t-20 7.5h-400q-11 2 -19.5 -6.5t-8.5 -18.5q0 -14 8 -22.5t20 -8.5v0zM84 637h400q13 0 20.5 8.5t7.5 20.5
q0 11 -8 18t-20 7h-400q-10 2 -17.5 -5.5t-7.5 -17.5q0 -13 7 -22t18 -9v0zM1021 366l-225 318q-8 7 -20 7h-121v115q0 13 -8 21t-20 8h-455q-13 0 -21 -8.5t-8 -20.5q0 -11 7.5 -18t21.5 -7h427v-85v-368q0 -13 8 -20.5t20 -7.5h341v-198h-62q-9 49 -49 81t-92 32
q-51 0 -90 -32t-50 -81h-233q-10 49 -50 81t-91 32t-90 -32t-51 -81h-82q-13 0 -20.5 -8t-7.5 -20q0 -13 8 -20.5t20 -7.5h90q9 -48 49 -80.5t92 -32.5q51 0 90 32t50 81h233q10 -48 50 -80.5t91 -32.5t90 32t51 81h90q13 0 20.5 8t7.5 20v282q-11 7 -11 10v0zM256 -15
q-36 0 -60 24.5t-24 59.5q0 36 24.5 60.5t59.5 24.5t59.5 -25t24.5 -60t-24 -59.5t-60 -24.5v0zM768 -15q-36 0 -60 24.5t-24 59.5q0 36 24.5 60.5t59.5 24.5q36 0 60 -25t24 -60t-24 -59.5t-60 -24.5v0zM760 637l203 -284h-308v284h105v0z" />
    <glyph glyph-name="kefu" unicode="&#xe622;" 
d="M934 539q-42 134 -157 219.5t-259 85.5q-145 0 -259 -84.5t-158 -218.5q-32 -5 -53 -29.5t-21 -57.5v-199q0 -34 23 -59.5t56 -28.5q21 -73 103 -124t193 -60q9 -15 32 -24.5t51 -9.5q37 0 63 15t26 36.5t-26 36.5t-63 15q-29 0 -52 -9.5t-32 -25.5q-94 9 -162 53
t-83 106q22 11 35 32t13 47v199q0 24 -12 44.5t-32 32.5q39 112 137 183t221 71q121 0 218.5 -70t137.5 -181q-23 -11 -37 -32.5t-14 -47.5v-199q0 -37 26 -63t62.5 -26t62.5 26t26 63v199q0 30 -18.5 54t-47.5 31z" />
    <glyph glyph-name="gouxuan" unicode="&#xe63e;" horiz-adv-x="1366" 
d="M1365 759l-887 -887l-137 136v0l-341 342l137 136l341 -341l751 751z" />
    <glyph glyph-name="huiyuanid" unicode="&#xe6db;" 
d="M461 672q-42 28 -46 71.5t27 75.5q28 29 70 29t70 -29q20 -19 25.5 -46t-5.5 -55t-39 -46l211 -230q7 0 7 6q32 22 96 64t96 64q6 6 32 6q9 -4 14 -15.5t5 -22.5q-6 -48 -22 -147t-23 -147q-25 -180 -45 -269q0 -7 -3 -16.5t-3 -15.5q0 -15 -9 -23.5t-23 -8.5h-96h-666
q-27 0 -38 32q-3 25 -12.5 76.5t-13.5 76.5q-4 18 6 28.5t26 10.5h32h628h12q11 -6 17.5 -14.5t2.5 -17.5q0 -10 -9 -18.5t-23 -13.5h-45h-583h7q13 -64 13 -96h6h698q4 0 5 0.5t1 5.5q6 48 22 144t23 144q6 32 15.5 96t16.5 96v7q-7 0 -7 -7q-102 -64 -153 -102
q-26 0 -45 19q-26 29 -71 79t-82 90t-71 74l-6 7q-4 -7 -13.5 -19.5t-12.5 -19.5l-192 -211v-6q-14 -10 -25.5 -10t-25.5 10q-103 64 -154 102q-6 0 -6 6q0 -9 3 -28.5t3 -28.5q3 -29 13 -83.5t13 -83.5q0 -25 -26 -38q-30 0 -38 26q-3 19 -6.5 54t-6.5 54q-6 29 -16 90
t-16 90v19q5 15 21 21.5t30 -2.5q13 -10 38.5 -26t38.5 -25q22 -13 64 -42t64 -41q64 76 205 230v0zM512 723q14 0 23 9t9 23q0 11 -9.5 21.5t-22.5 10.5t-22.5 -10.5t-9.5 -21.5q0 -14 9 -23t23 -9v0z" />
    <glyph glyph-name="user" unicode="&#xe611;" 
d="M944 -85q-7 92 -50.5 173.5t-116.5 139.5l-6 4v0q-8 5 -18 5q-17 0 -26.5 -7.5t-9.5 -21.5q0 -16 13 -27v0l5 -4q124 -88 137 -263v-2v-3q0 -14 10.5 -24.5t25.5 -10.5q14 0 24.5 9.5t10.5 23.5h1v8zM829 511q0 87 -43.5 161t-118.5 117t-163 43t-163 -43t-118.5 -117
t-43.5 -161q0 -72 30.5 -136t85.5 -110q-99 -53 -161 -148t-70 -207v-6v0v-1v0v-1q0 -12 9 -21t21.5 -9t21 9t8.5 21v1h1v6q9 107 71 193t159 124q78 -36 149 -36q73 0 141 32l33 19l27 18q59 46 91.5 112t32.5 140v0zM504 255q-107 0 -183.5 75t-76.5 181t76.5 181
t183.5 75t183.5 -75t76.5 -181t-76.5 -181t-183.5 -75v0z" />
    <glyph glyph-name="haiwai" unicode="&#xe610;" 
d="M673 590l-99 -98q-8 -8 -17 -5l-201 43l-26 -27l151 -69q9 -4 10.5 -13.5t-5.5 -16.5l-86 -85q-5 -6 -13 -6h-70l-16 -17l78 -42l7 -7l43 -78l16 16l1 70q0 8 7 14l83 83q3 3 7 5q6 3 13.5 0.5t10.5 -8.5l70 -152l26 27l-43 200q-2 9 5 17l99 98q11 11 11 26t-10.5 25.5
t-26 10.5t-25.5 -11zM512 896q-139 0 -257 -68.5t-186.5 -186.5t-68.5 -257t68.5 -257t186.5 -186.5t257 -68.5t257 68.5t186.5 186.5t68.5 257t-68.5 257t-186.5 186.5t-257 68.5zM749 514l-92 -92l44 -200q2 -10 -5 -17l-52 -52q-7 -6 -16.5 -4.5t-13.5 9.5l-69 151
l-63 -62v-69q0 -8 -6 -13l-39 -39q-6 -6 -15 -5t-13 9l-52 94l-95 52q-8 4 -9 13t5 16l39 39q6 5 13 5h70l62 63l-151 69q-9 4 -10.5 13.5t5.5 15.5l52 52q7 7 16 5l201 -43l92 92q22 21 52 21.5t51 -20.5t21 -51.5t-22 -51.5z" />
    <glyph glyph-name="new" unicode="&#xe612;" 
d="M512 896q-104 0 -199 -40.5t-163.5 -109t-109 -163.5t-40.5 -199t40.5 -199t109 -163.5t163.5 -109t199 -40.5t199 40.5t163.5 109t109 163.5t40.5 199t-40.5 199t-109 163.5t-163.5 109t-199 40.5zM380 204q0 -7 -5.5 -12.5t-13.5 -5.5q-10 0 -18 18l-113 263v-263
q0 -7 -5.5 -12.5t-13.5 -5.5t-13.5 5.5t-5.5 12.5v358q0 7 5.5 12.5t13.5 5.5q7 0 10.5 -4.5t8.5 -13.5l113 -263v263q0 7 5.5 12.5t13 5.5t13 -5.5t5.5 -12.5v-358zM568 401q8 0 13.5 -5.5t5.5 -12.5t-5.5 -12.5t-13.5 -5.5h-112v-143h112q8 0 13.5 -5t5.5 -12.5t-5.5 -13
t-13.5 -5.5h-131q-8 0 -13.5 5.5t-5.5 12.5v358q0 7 5.5 12.5t13.5 5.5h131q8 0 13.5 -5.5t5.5 -13t-5.5 -12.5t-13.5 -5h-112v-143h112zM832 204q0 -7 -5.5 -12.5t-13.5 -5.5q-7 0 -10.5 4.5t-8.5 13.5l-66 145l-65 -145q-9 -18 -19 -18q-8 0 -13.5 5.5t-5.5 12.5v358
q0 7 5.5 12.5t13.5 5.5t13.5 -5.5t5.5 -12.5v-267l49 109q3 6 9 8q7 3 14.5 0t10.5 -10l48 -107v267q0 7 5.5 12.5t13.5 5.5t13.5 -5.5t5.5 -12.5v-358z" />
    <glyph glyph-name="qianggou" unicode="&#xe613;" 
d="M712 359q0 80 -57 137t-137.5 57t-137.5 -57t-57 -137t57 -137t137.5 -57t137.5 57t57 137zM530 337l-70 -74q-5 -5 -12 -5q-6 0 -11 4q-11 11 0 23l61 65v116q0 6 4.5 11t11 5t11.5 -5t5 -11v-129zM512 896q-104 0 -199 -40.5t-163.5 -109t-109 -163.5t-40.5 -199
t40.5 -199t109 -163.5t163.5 -109t199 -40.5t199 40.5t163.5 109t109 163.5t40.5 199t-40.5 199t-109 163.5t-163.5 109t-199 40.5zM276 524q-6 3 -7.5 9.5t1.5 12.5q42 75 118 103q38 14 68 13q7 0 11.5 -5t4.5 -11.5t-5 -11t-12 -4.5q-25 1 -57 -11q-64 -25 -100 -89
q-5 -8 -14 -8q-4 0 -8 2zM711 131q4 -6 2.5 -12.5t-7.5 -10.5q-4 -2 -9 -2q-8 0 -13 7l-37 57q-58 -40 -129 -40q-69 0 -126 37l-35 -54q-5 -7 -14 -7q-4 0 -8 2q-14 9 -5 23l37 56q-6 5 -11 10q-67 67 -67 162t67 162t162 67t162 -67t67 -162t-67 -162q-4 -4 -8 -7z
M748 524q-4 -2 -8 -2q-9 0 -14 8q-16 29 -38.5 49.5t-41 30t-38.5 14.5t-27.5 5.5t-11.5 0.5q-7 0 -12 4.5t-5 11t4.5 11.5t11.5 5q30 1 68 -13q76 -28 118 -103q3 -6 1.5 -12.5t-7.5 -9.5zM642 197z" />
    <glyph glyph-name="paihang" unicode="&#xe614;" 
d="M233 469.5q1 -12.5 10.5 -17.5t19.5 0t11 18q-1 12 -11.5 17t-20.5 0t-9 -17.5zM510 474q-67 -76 -176 -92q12 -25 33 -73t29 -65q115 21 229 0q22 48 62 137q-111 16 -177 93zM530 599q-1 13 -11 18t-20 0t-9.5 -17.5t10.5 -17.5t19.5 0t10.5 17zM751 469.5
q1 -12.5 10.5 -17.5t19.5 0t10 18q0 12 -10.5 17t-20.5 0t-9 -17.5zM511.5 894q-103.5 0 -198 -40.5t-163 -108.5t-109 -162.5t-40.5 -198.5t40.5 -198.5t109 -162.5t163 -108.5t198 -40.5t198 40.5t162.5 108.5t108.5 162.5t40.5 198.5t-40.5 198.5t-108.5 162.5
t-162.5 108.5t-198 40.5zM456 599q1 22 16.5 39t37.5 16q21 -2 35.5 -15t17.5 -34q1 -3 1 -6t-1 -6q-3 -20 -18 -34.5t-35 -13.5q-22 1 -38.5 16.5t-15.5 37.5zM253 415q-22 1 -38.5 16.5t-15 38t16.5 39t37 15.5t36.5 -14.5t17.5 -34.5v-5v-6q-4 -21 -18.5 -35.5
t-35.5 -13.5zM632 120q-124 33 -243 0q-10 -2 -16.5 5t-4.5 16t12 12q128 36 261 0q10 -2 11.5 -11.5t-4.5 -16.5t-16 -5zM727 387q-11 -24 -24.5 -54.5t-28 -62t-24.5 -54.5q-5 -11 -19 -8q-120 25 -240 0h-2q-12 -4 -17 8q-29 64 -77 171q-4 9 0 17t14 9q120 11 190 100
q6 7 14 5t12 -8q63 -88 187 -97q10 -1 14.5 -9t0.5 -17zM824 464q-3 -21 -18 -35.5t-35 -13.5q-22 1 -38.5 16.5t-15.5 38t16.5 39t37.5 15.5q21 -1 36 -14.5t17 -34.5q1 -2 1 -5q0 -4 -1 -6z" />
    <glyph glyph-name="xitongxiaoxi" unicode="&#xe640;" 
d="M838 207v0q-3 1 -7.5 4.5t-12.5 25t-10 53.5v43v1v-1v132q0 109 -70 192.5t-175 102.5v16q0 22 -16 38t-38.5 16t-38.5 -16t-16 -38v-16q-106 -19 -176 -102.5t-70 -192.5v-175q-2 -33 -9.5 -54t-13.5 -25l-7 -4q-21 0 -36 -15t-15 -36.5t15 -36.5t36 -15h660q21 0 36 15
t15 36.5t-15 36.5t-36 15zM511.5 -63q44.5 0 75.5 31t31 76h-214q0 -45 31.5 -76t76 -31z" />
    <glyph glyph-name="resou" unicode="&#xe634;" 
d="M0 896v-1024h1024v1024h-1024zM849 47q-13 -14 -33 -14t-33 14l-103 103q-100 -73 -219 -65t-205 95q-62 62 -84.5 146t0 167.5t84.5 146.5q86 86 207.5 94.5t216.5 -64.5q69 -51 103.5 -130t25.5 -166t-63 -158l103 -103q14 -18 14 -38t-14 -28zM292.5 597.5
q-77.5 -77.5 -77.5 -188t77 -187.5q79 -79 188 -79t188 79q77 77 77 187.5t-77 188.5q-77 77 -187.5 77t-188 -77.5zM534 258q25 50 9.5 108.5t-60.5 89.5q4 -16 -3 -45t-24 -49q2 16 0 27t-6 17l-3 6q-5 -28 -24 -55q-10 -14 -15 -26t-3.5 -31t11.5 -41q-52 29 -70 59.5
t-10 70.5q4 17 21.5 52t18.5 56q12 -20 14 -56q74 91 64 155q3 -1 7.5 -3t17.5 -11t24.5 -21.5t24.5 -36t20 -52.5q11 10 12.5 29.5t-5.5 31.5q10 -7 25 -25.5t29.5 -49.5t17.5 -63.5t-19.5 -70t-73.5 -66.5z" />
    <glyph glyph-name="shenfen1" unicode="&#xe632;" 
d="M121 797q-52 0 -85.5 -33.5t-33.5 -85.5v-577q0 -52 33.5 -85.5t85.5 -33.5h781q52 0 85.5 33.5t33.5 85.5v577q0 52 -33.5 85.5t-85.5 33.5h-781zM902 33h-781q-32 0 -50 17.5t-18 50.5v577q0 32 18 50t50 18h781q33 0 50.5 -18t17.5 -50v-577l-11 -28q-21 -40 -57 -40z
M620 491h174q10 0 16.5 7.5t6.5 18t-6.5 18t-16.5 7.5h-174q-9 0 -16 -7.5t-7 -18t7 -18t16 -7.5v0zM620 355h174q10 0 16.5 7.5t6.5 18t-6.5 18t-16.5 7.5h-174q-9 0 -16 -7.5t-7 -18t7 -18t16 -7.5v0zM879 270h-259q-9 0 -16 -7.5t-7 -18t7 -18t16 -7.5h259q9 0 16 7.5
t7 18t-7 18t-16 7.5v0zM488 304q-42 45 -102 62l-4 1l3 2q32 17 50.5 47t18.5 66q0 53 -38 90.5t-91.5 37.5t-91.5 -37.5t-38 -90.5q0 -36 18.5 -66t50.5 -47l3 -2l-4 -1q-60 -17 -102 -62q-44 -46 -55 -107q-2 -10 3.5 -18t14.5 -9q3 -1 5 -1q8 0 14.5 5.5t8.5 13.5
q12 60 60.5 96.5t112.5 36.5t112 -36.5t60 -96.5q1 -9 8 -14t15 -5h4q10 2 15.5 10t3.5 17q-11 62 -55 108v0zM325 559q35 0 60 -25t25 -60t-25 -60t-60 -25t-60 25t-25 60t25 60t60 25v0zM325 559z" />
    <glyph glyph-name="chengnuo" unicode="&#xe636;" 
d="M511.5 595q-94.5 0 -165.5 -60t-88 -151h507q-17 91 -88 151t-165.5 60zM512 896q-139 0 -257 -68.5t-186.5 -186.5t-68.5 -257t68.5 -257t186.5 -186.5t257 -68.5t257 68.5t186.5 186.5t68.5 257t-68.5 257t-186.5 186.5t-257 68.5zM808 341h-271v-176v-4
q-3 -33 -27.5 -55.5t-58.5 -22.5q-35 0 -60 25.5t-25 60.5h42q0 -17 13 -30t30.5 -13t30 13t12.5 30v172h-279v43v0q16 103 93.5 174.5t182.5 78.5v28q0 8 6 13.5t15 5.5t15.5 -5.5t6.5 -13.5v-28q104 -7 181 -78.5t93 -174.5v0v-43z" />
  </font>
</defs>
</svg>
